<svg width="544" height="556" viewBox="0 0 544 570" fill="none" xmlns="http://www.w3.org/2000/svg"><style></style><path d="M437.198 54.866l-3.766 3.795-3.765-3.795 3.765-3.794 3.766 3.794zM463.556 54.866l-3.766 3.795-3.765-3.795 3.765-3.794 3.766 3.794zM489.914 54.866l-3.766 3.795-3.693-3.795 3.693-3.794 3.766 3.794zM437.198 28.306l-3.766 3.794-3.765-3.794 3.765-3.794 3.766 3.794zM463.556 28.306L459.79 32.1l-3.765-3.794 3.765-3.794 3.766 3.794zM489.913 28.306l-3.765 3.794-3.659-3.794 3.659-3.794 3.765 3.794zM380.717 54.866l-3.766 3.795-3.765-3.795 3.765-3.794 3.766 3.794zM407.074 54.866l-3.765 3.795-3.766-3.795 3.766-3.794 3.765 3.794zM380.717 28.306l-3.766 3.794-3.765-3.794 3.765-3.794 3.766 3.794zM407.074 28.306l-3.765 3.794-3.766-3.794 3.766-3.794 3.765 3.794zM437.198 134.55l-3.766 3.794-3.765-3.794 3.765-3.795 3.766 3.795zM463.556 134.55l-3.766 3.794-3.765-3.794 3.765-3.795 3.766 3.795zM489.913 134.55l-3.765 3.794-3.584-3.794 3.584-3.795 3.765 3.795zM437.198 107.988l-3.766 3.795-3.765-3.795 3.765-3.794 3.766 3.794zM463.556 107.988l-3.766 3.795-3.765-3.795 3.765-3.794 3.766 3.794zM489.913 107.988l-3.765 3.795-3.638-3.795 3.638-3.794 3.765 3.794zM437.198 81.428l-3.766 3.794-3.765-3.794 3.765-3.794 3.766 3.794zM463.556 81.428l-3.766 3.794-3.765-3.794 3.765-3.794 3.766 3.794zM489.913 81.428l-3.765 3.794-3.638-3.794 3.638-3.794 3.765 3.794zM380.717 134.55l-3.766 3.794-3.765-3.794 3.765-3.795 3.766 3.795zM407.074 134.55l-3.765 3.794-3.766-3.794 3.766-3.795 3.765 3.795zM380.717 107.988l-3.766 3.795-3.765-3.795 3.765-3.794 3.766 3.794zM407.074 107.988l-3.765 3.795-3.766-3.795 3.766-3.794 3.765 3.794zM380.717 81.428l-3.766 3.794-3.765-3.794 3.765-3.794 3.766 3.794zM407.074 81.428l-3.765 3.794-3.766-3.794 3.766-3.794 3.765 3.794zM64.828 457.458l-3.765 3.794-3.766-3.794 3.766-3.795 3.765 3.795zM91.186 457.458l-3.765 3.794-3.766-3.794 3.766-3.795 3.765 3.795zM117.543 457.458l-3.765 3.794-3.693-3.794 3.693-3.795 3.765 3.795zM64.828 430.897l-3.765 3.795-3.766-3.795 3.766-3.794 3.765 3.794zM91.186 430.897l-3.765 3.795-3.766-3.795 3.766-3.794 3.765 3.794zM117.544 430.897l-3.766 3.795-3.659-3.795 3.659-3.794 3.766 3.794zM8.347 457.458l-3.765 3.794-3.766-3.794 3.766-3.795 3.765 3.795zM34.705 457.458l-3.766 3.794-3.765-3.794 3.765-3.795 3.766 3.795zM8.347 430.897l-3.765 3.795-3.766-3.795 3.766-3.794 3.765 3.794zM34.705 430.897l-3.766 3.795-3.765-3.795 3.765-3.794 3.766 3.794zM64.828 537.141l-3.765 3.795-3.766-3.795 3.766-3.794 3.765 3.794zM91.186 537.141l-3.765 3.795-3.766-3.795 3.766-3.794 3.765 3.794zM117.543 537.141l-3.765 3.795-3.583-3.795 3.583-3.794 3.765 3.794zM64.828 510.58l-3.765 3.794-3.766-3.794 3.766-3.795 3.765 3.795zM91.186 510.58l-3.765 3.794-3.766-3.794 3.766-3.795 3.765 3.795zM117.544 510.58l-3.766 3.794-3.638-3.794 3.638-3.795 3.766 3.795zM64.828 484.019l-3.765 3.795-3.766-3.795 3.766-3.794 3.765 3.794zM91.186 484.019l-3.765 3.795-3.766-3.795 3.766-3.794 3.765 3.794zM117.544 484.019l-3.766 3.795-3.638-3.795 3.638-3.794 3.766 3.794zM8.347 537.141l-3.765 3.795-3.766-3.795 3.766-3.794 3.765 3.794zM34.705 537.141l-3.766 3.795-3.765-3.795 3.765-3.794 3.766 3.794zM8.347 510.58l-3.765 3.794-3.766-3.794 3.766-3.795 3.765 3.795zM34.705 510.58l-3.766 3.794-3.765-3.794 3.765-3.795 3.766 3.795zM8.347 484.019l-3.765 3.795-3.766-3.795 3.766-3.794 3.765 3.794zM34.705 484.019l-3.766 3.795-3.765-3.795 3.765-3.794 3.766 3.794zM64.828 110.073l-3.765 3.794-3.766-3.794 3.766-3.795 3.765 3.795zM91.186 110.073l-3.765 3.794-3.766-3.794 3.766-3.795 3.765 3.795zM117.543 110.073l-3.765 3.794-3.693-3.794 3.693-3.795 3.765 3.795zM64.828 83.512l-3.765 3.795-3.766-3.795 3.766-3.794 3.765 3.794zM91.186 83.513l-3.765 3.794-3.766-3.794 3.766-3.795 3.765 3.794zM117.544 83.513l-3.766 3.794-3.659-3.794 3.659-3.795 3.766 3.794zM8.347 110.073l-3.765 3.794-3.766-3.794 3.766-3.795 3.765 3.795zM34.705 110.073l-3.766 3.794-3.765-3.794 3.765-3.795 3.766 3.795zM8.347 83.512l-3.765 3.795-3.766-3.795 3.766-3.794 3.765 3.794zM34.705 83.512l-3.766 3.795-3.765-3.795 3.765-3.794 3.766 3.794zM64.828 189.756l-3.765 3.795-3.766-3.795 3.766-3.794 3.765 3.794zM91.186 189.756l-3.765 3.795-3.766-3.795 3.766-3.794 3.765 3.794zM117.543 189.756l-3.765 3.795-3.583-3.795 3.583-3.794 3.765 3.794zM64.828 163.195l-3.765 3.794-3.766-3.794 3.766-3.795 3.765 3.795zM91.186 163.195l-3.765 3.794-3.766-3.794 3.766-3.795 3.765 3.795zM117.544 163.195l-3.766 3.794-3.638-3.794 3.638-3.795 3.766 3.795zM64.828 136.634l-3.765 3.795-3.766-3.795 3.766-3.794 3.765 3.794zM91.186 136.634l-3.765 3.795-3.766-3.795 3.766-3.794 3.765 3.794zM117.544 136.634l-3.766 3.795-3.638-3.795 3.638-3.794 3.766 3.794zM8.347 189.756l-3.765 3.795-3.766-3.795 3.766-3.794 3.765 3.794zM34.705 189.756l-3.766 3.795-3.765-3.795 3.765-3.794 3.766 3.794zM8.347 163.195l-3.765 3.794-3.766-3.794 3.766-3.795 3.765 3.795zM34.705 163.195l-3.766 3.794-3.765-3.794 3.765-3.795 3.766 3.795zM8.347 136.634l-3.765 3.795-3.766-3.795 3.766-3.794 3.765 3.794zM34.705 136.634l-3.766 3.795-3.765-3.795 3.765-3.794 3.766 3.794zM490.785 404.355l-3.766 3.794-3.765-3.794 3.765-3.794 3.766 3.794zM517.143 404.355l-3.766 3.794-3.765-3.794 3.765-3.794 3.766 3.794zM543.5 404.355l-3.765 3.794-3.693-3.794 3.693-3.794 3.765 3.794zM490.785 377.795l-3.766 3.794-3.765-3.794 3.765-3.795 3.766 3.795zM517.143 377.795l-3.766 3.794-3.765-3.794 3.765-3.795 3.766 3.795zM543.5 377.795l-3.765 3.794-3.659-3.794 3.659-3.795 3.765 3.795zM434.304 404.355l-3.766 3.794-3.765-3.794 3.765-3.794 3.766 3.794zM460.661 404.355l-3.765 3.794-3.766-3.794 3.766-3.794 3.765 3.794zM434.304 377.795l-3.766 3.794-3.765-3.794 3.765-3.795 3.766 3.795zM460.661 377.795l-3.765 3.794-3.766-3.794 3.766-3.795 3.765 3.795zM490.785 484.038l-3.766 3.795-3.765-3.795 3.765-3.794 3.766 3.794zM517.143 484.038l-3.766 3.795-3.765-3.795 3.765-3.794 3.766 3.794zM543.5 484.038l-3.765 3.795-3.584-3.795 3.584-3.794 3.765 3.794zM490.785 457.477l-3.766 3.794-3.765-3.794 3.765-3.795 3.766 3.795zM517.143 457.477l-3.766 3.794-3.765-3.794 3.765-3.795 3.766 3.795zM543.5 457.477l-3.765 3.794-3.638-3.794 3.638-3.795 3.765 3.795zM490.785 430.917l-3.766 3.794-3.765-3.794 3.765-3.795 3.766 3.795zM517.143 430.917l-3.766 3.794-3.765-3.794 3.765-3.795 3.766 3.795zM543.5 430.917l-3.765 3.794-3.638-3.794 3.638-3.795 3.765 3.795zM434.304 484.038l-3.766 3.795-3.765-3.795 3.765-3.794 3.766 3.794zM460.661 484.038l-3.765 3.795-3.766-3.795 3.766-3.794 3.765 3.794zM434.304 457.477l-3.766 3.794-3.765-3.794 3.765-3.795 3.766 3.795zM460.661 457.477l-3.765 3.794-3.766-3.794 3.766-3.795 3.765 3.795zM434.304 430.917l-3.766 3.794-3.765-3.794 3.765-3.795 3.766 3.795zM460.661 430.917l-3.765 3.794-3.766-3.794 3.766-3.795 3.765 3.795z" fill="#FBE6EB"/><g style="animation:figure1 infinite 10s linear"><path d="M445.459 375.424c1.988-1.893 4.07-3.786 6.058-5.773 4.164 3.502 10.696 9.465 14.198 16.375.568 1.135 1.136 2.366 1.419 3.975 1.136 5.774-1.893 10.79-3.502 13.062-2.177-2.745-4.354-5.584-6.531-8.329.19-.474.379-1.326.474-2.272.283-4.07-2.367-7.288-5.112-10.507-1.42-1.798-3.691-4.164-7.004-6.531zM463.443 419.627c-1.041 1.515-1.988 3.124-3.029 4.638 2.177 1.231 4.449 2.556 6.626 3.786 1.798-.378 3.691-.757 5.49-1.135 1.703-3.219 3.312-6.437 5.016-9.56l-4.543-1.988c-1.231 1.988-2.461 3.881-3.692 5.868l-1.703 1.136c-1.42-.946-2.84-1.798-4.165-2.745zM453.22 435.34c1.42 1.419 2.935 2.839 4.355 4.259-1.326 2.65-2.651 5.301-3.976 7.856-1.704 2.367-3.502 4.827-5.206 7.194.852.757 1.609 1.514 2.461 2.366 5.679-4.165 11.358-8.329 17.038-12.589 2.555-.852 5.206-1.703 7.761-2.555h3.313c2.745 2.082 5.395 4.259 8.14 6.341.284 2.272.568 5.869-.095 10.128-1.609 9.75-7.098 16.186-14.481 24.61-6.153 7.099-10.885 10.601-12.495 11.832-6.625 4.922-11.169 6.341-13.062 6.815-3.407.946-6.909 1.798-10.979.473-1.136-.379-5.206-1.799-7.478-5.963-1.23-2.272-1.325-4.449-1.325-5.679 1.041-3.503 2.177-6.91 3.218-10.412 2.65-3.502 5.301-6.91 7.856-10.412l3.124-3.692c-1.041-.851-2.082-1.798-3.124-2.65-4.922 1.988-9.938 4.07-14.86 6.058-2.082-1.609-4.165-3.313-6.153-4.922 5.017-3.123 10.034-6.152 15.05-9.276l16.186-14.482a118.733 118.733 0 004.732-5.3z" fill="#fff"/><path d="M405.421 275.66c1.609.568 4.259 1.704 6.72 3.976 1.515 1.42 2.461 2.65 2.84 3.218 2.366 3.502 6.815 10.317 12.399 19.215 7.383 11.737 16.375 28.869 22.054 37.198 0 0 5.206 7.762 6.626 17.416.189 1.515.379 3.313-.095 5.49-.852 4.07-3.407 6.72-5.773 9.087-2.84 2.934-5.68 4.732-7.005 5.49-3.786 2.177-7.856 4.543-12.967 4.07-5.206-.474-8.898-3.597-10.507-5.206-3.123-3.976-6.152-7.951-9.276-11.926-4.354-8.33-8.613-17.227-12.778-26.693-6.909-15.901-12.399-30.951-16.753-45.054.189-2.367.852-6.626 3.975-10.128 1.515-1.798 3.218-2.84 4.733-3.786 2.271-1.42 4.827-3.029 8.613-3.313 3.218-.379 5.679.379 7.194.946zM461.455 399.466c.568.663 4.165 5.206 3.787 11.453-.095 2.367-.758 4.07-1.136 5.111-4.733 12.4-14.766 23.569-14.766 23.569a106.917 106.917 0 01-11.832 11.358c-9.181 7.667-16.659 11.548-28.206 17.606-5.774 2.934-10.412 5.111-16.564 6.057-3.976.663-7.383 1.136-11.264-.378-5.017-1.893-9.56-6.72-10.317-12.4-.095-.757-.284-2.839 1.041-7.383 2.272-7.382 5.963-12.494 7.951-15.239 3.691-4.922 8.045-10.695 15.901-17.889 5.112-4.638 13.062-9.844 29.153-20.256 2.272-1.419 9.939-6.341 19.12-7.761 1.42-.189 3.408-.473 5.869-.095 1.514.284 7.193 1.231 11.263 6.247z" fill="#F7D7DE"/><path d="M406.178 291.657c-.095-.189-.473-.284-.662-.189-.19.094-.284.473-.19.662 5.585 9.087 11.075 17.889 16.28 26.03 7.762 12.304 23.948 38.05 21.203 45.244-.095.284 0 .473.284.568h.189a.52.52 0 00.473-.284c2.556-6.721-8.803-26.125-21.297-46.096a1711.805 1711.805 0 01-16.28-25.935zM449.813 419.817c2.461-4.26 4.354-8.898 5.774-13.725.095-.284-.095-.473-.284-.568-.284-.095-.473.095-.568.284-1.42 4.733-3.313 9.276-5.679 13.535-8.708 15.239-21.486 22.717-32.845 29.248a137.242 137.242 0 01-33.98 13.914c-.284.095-.378.284-.378.568.094.189.283.379.473.379h.094a142.594 142.594 0 0034.17-14.009c10.885-6.342 24.42-14.103 33.223-29.626z" fill="#1D1D1B"/><path d="M486.917 446.509c-1.325-1.325-6.057-4.828-8.329-5.585-3.786-1.609-9.844 1.893-15.712 5.679-4.26 2.745-8.141 5.963-11.737 9.56l-1.704-1.703c5.584-6.248 8.235-12.021 9.181-14.577l.189-.568-4.164-4.259c2.082-2.651 3.88-5.301 5.395-7.951.284-.379.473-.852.662-1.231l5.585 2.84.189.095c.758.189 1.515.189 2.177.189 1.893 0 3.124-.568 3.786-.947.663-.378 1.136-.851 4.26-6.815.852-1.609 1.325-2.555.946-3.691-.662-1.988-3.218-2.65-4.259-2.84l-.568-.094-4.733 6.625-4.164-2.271c2.271-5.774 2.839-10.507 1.514-14.198-.095-.379-.284-.757-.473-1.136.757-1.514 1.42-3.029 1.893-4.638.568-1.893 1.514-5.111 1.041-8.708-.379-2.84-1.609-5.017-2.839-7.004-2.935-4.638-7.194-9.371-12.4-13.82.284-.473.663-.946.947-1.419 1.135-1.799 2.555-4.165 3.218-7.478 1.609-8.235-2.84-15.334-5.49-19.593l.189-.284c-3.786-6.058-7.099-11.926-10.696-18.173-7.099-12.495-14.481-25.367-26.124-41.269a18.84 18.84 0 00-4.259-4.259c-1.893-1.325-5.774-3.502-10.885-3.502-7.478 0-12.305 4.638-14.955 7.193-1.515 1.42-3.124 3.029-4.07 5.585-1.42 4.164-.095 8.045.473 9.749 10.79 30.857 16.186 42.12 21.865 54.141 1.325 2.84 2.745 5.679 4.164 8.803.663 1.609 3.881 7.477 9.655 14.292 3.881 4.544 7.194 7.573 11.832 8.235.567.095 1.135.095 1.703.095 1.231 0 2.272-.189 3.313-.379 1.893-.284 6.815-1.419 11.737-4.638 5.49 4.922 9.844 9.75 11.074 12.305a7.888 7.888 0 01.758 2.65c.094.947-.095 1.799-.379 2.745-1.041-.568-1.798-.946-1.893-.946-6.815-2.84-14.671-1.136-28.774 6.247-31.425 16.564-45.623 36.441-51.208 46.853-3.502 6.436-6.341 13.157-3.596 19.499 3.029 7.004 11.169 9.37 12.115 9.654a19.97 19.97 0 005.111.663c4.071 0 7.478-1.231 9.371-1.893 7.383-2.651 14.009-5.774 19.688-8.803l5.963 5.016.473-.094c2.556-.568 8.14-2.272 14.482-6.437l2.082 2.177c-3.218 3.124-5.963 6.248-7.761 8.898-6.815 10.033-7.194 18.836-4.827 21.675 1.325 1.799 4.164 4.165 5.963 5.49 1.987 1.42 4.732 1.704 6.531 1.704h1.136c10.411-.757 20.823-9.56 21.202-9.939 15.523-12.872 21.581-24.799 23.095-28.206.095-.379 3.218-8.424 3.313-12.684-.095-2.839-.757-5.016-2.272-6.625zm-18.078-22.906l5.016-7.005c.947.284 1.988.663 2.177 1.42.095.379-.094.852-.852 2.272-2.65 5.016-3.312 5.868-3.596 6.058-.663.378-2.177 1.041-4.449.568l-5.395-2.745c.662-1.231 1.23-2.367 1.703-3.502l5.396 2.934zM433.344 379.4c-1.515.284-2.84.473-4.449.189-4.07-.568-7.099-3.313-10.601-7.572-6.626-7.856-9.371-13.725-9.465-13.914-1.42-3.123-2.84-6.058-4.165-8.897-5.679-11.927-11.074-23.285-21.865-53.952-.473-1.515-1.703-4.922-.473-8.424.757-2.177 2.177-3.597 3.597-4.922 2.461-2.367 7.004-6.626 13.63-6.626 4.638 0 8.045 1.988 9.749 3.218 2.082 1.609 3.408 3.313 3.881 3.881 11.547 15.807 18.93 28.68 26.029 41.079 3.597 6.247 6.91 12.116 10.696 18.173l.189.284c2.461 3.976 6.721 10.696 5.206 18.174-.568 3.029-1.893 5.111-3.029 6.815-5.963 9.654-15.996 12.021-18.93 12.494zm25.651 12.115c0-.094-.095-1.609-.852-3.312-1.325-2.745-5.585-7.573-11.169-12.684 1.704-1.23 3.313-2.839 4.827-4.638 5.017 4.354 9.087 8.898 11.926 13.346 1.326 2.083 2.177 3.881 2.556 6.247.473 3.218-.379 6.058-.947 7.951a16.576 16.576 0 01-1.135 3.029c-1.704-2.745-3.881-4.733-5.774-6.058.473-1.325.662-2.65.568-3.881zm-61.903 80.929c-2.65.946-7.667 2.744-13.346 1.135-.852-.189-8.235-2.366-10.885-8.518-1.893-4.449-.852-9.655 3.597-17.795 5.489-10.223 19.403-29.721 50.544-46.001 10.412-5.49 16.754-7.289 21.392-7.289 2.271 0 4.07.474 5.773 1.136.284.095 7.289 3.124 9.75 10.223 2.082 5.963-1.799 14.576-5.396 20.729-5.016 8.613-13.44 17.794-24.42 26.502-.095.095-15.523 12.305-37.009 19.878zm22.054-7.951c9.938-5.49 16.091-10.412 16.186-10.412 7.193-5.774 13.346-11.737 18.268-17.606l3.123 3.219c-1.23 2.934-4.922 10.79-13.251 18.078-4.922 4.26-9.75 7.005-13.63 8.614l-3.029-3.124a.459.459 0 00-.663 0 .459.459 0 000 .663l2.745 2.839c-2.082.852-3.881 1.326-5.016 1.704l-4.733-3.975zm23.095-3.313s0 .095.095.095l8.14 8.14c.095.094.189.094.379.094.189 0 .284 0 .378-.094a.457.457 0 000-.663l-8.14-8.14 1.704-1.42a40.178 40.178 0 003.502-3.407l8.613 8.897c.663 2.461-.189 5.111-2.177 6.531-1.703 1.231-4.07 1.514-6.057.568l-8.614-8.897c.568-.568 1.325-1.136 2.177-1.704zm-8.045 14.86c1.703-2.555 4.354-5.584 7.477-8.613l5.679 5.868.19.095c1.136.568 2.271.757 3.502.757 1.609 0 3.313-.473 4.638-1.514 2.745-1.988 3.881-5.49 2.839-8.803l-.094-.189-5.963-6.153c3.407-3.502 7.288-6.625 11.453-9.276 3.88-2.555 11.169-7.193 14.292-5.395 1.42.852 2.272 2.177 2.461 4.07 1.136 8.424-9.181 24.231-14.766 30.005-15.617 16.091-31.708 22.812-36.441 18.741l-.095-.094c-.094-.189-.284-.379-.284-.473-1.23-2.272-1.23-9.655 5.112-19.026zm49.787-10.979c-1.42 3.218-7.288 14.86-22.527 27.449-.095.095-10.317 8.803-20.161 9.465-.947.095-4.26.189-6.342-1.325-.757-.568-1.609-1.23-2.461-1.893h.852c8.14 0 21.675-7.951 33.886-20.445 5.963-6.152 16.564-22.433 15.333-31.519-.094-.568-.189-1.042-.378-1.515 1.325.947 2.65 1.988 3.407 2.745 1.136 1.231 1.704 2.934 1.609 5.111-.189 3.786-3.218 11.832-3.218 11.927z" fill="#1D1D1B"/></g><g style="animation:flower infinite 5s linear alternate"><path d="M104.385 389.161l9.654 9.087c1.515.095 3.692.095 6.247-.284 7.573-1.325 12.495-5.49 17.227-9.465.568-.473 3.502-3.692 9.465-10.128 3.597-3.881 5.49-5.963 5.585-8.992.095-2.461-1.041-4.449-1.893-5.679l-30.951-55.372a19.919 19.919 0 00-5.49-1.988c-9.182-2.177-17.227 1.704-22.15 4.165-5.016 2.556-19.97 10.128-24.23 26.692-1.799 6.815-1.136 12.778-.379 16.47 12.4 11.737 24.705 23.663 36.915 35.494z" fill="#F7D7DE"/><path d="M66.808 345.053c-3.124 1.704-11.643 6.153-19.594 7.383-1.04.189-3.786.568-7.382.852-3.219.189-5.964.284-7.951.284.946-3.691 3.313-11.074 9.465-17.984 5.49-6.152 11.453-9.181 14.86-10.696-8.897-2.65-14.67-6.909-17.794-9.465-5.963-5.395-9.939-11.737-11.926-14.861-.663-1.135-1.23-1.987-1.61-2.65 4.26-.946 10.034-1.893 16.849-1.514 4.922.284 9.181 1.041 12.683 1.987-1.988-2.744-5.68-8.802-6.626-17.321-.851-7.099.663-12.873 1.704-15.996 4.544 1.514 10.885 4.164 17.416 9.181 4.544 3.502 7.951 7.099 10.317 10.128.474-4.638 1.799-11.642 5.774-19.12 2.083-3.975 4.544-7.194 6.626-9.655 2.46 3.313 5.111 7.857 7.099 13.441.473 1.515 1.988 6.058 2.555 12.305.38 4.07.285 7.478 0 10.128 3.313-3.408 7.383-7.194 12.495-10.791a87.351 87.351 0 017.477-4.732c.568 5.3.19 9.749-.284 12.873a50.529 50.529 0 01-2.555 10.222c-.947 2.84-1.988 5.206-2.745 7.004-1.893 0-4.544.095-7.667.568-3.218.379-10.128 1.515-17.51 5.869-8.046 4.732-12.306 10.695-15.24 14.766-6.247 8.708-6.436 14.103-6.436 15.901-.095.757 0 1.42 0 1.893z" fill="#E64E6C"/><path d="M153.036 365.309c0-.095-.095-.095-.189-.189-4.922-9.087-10.412-18.931-15.713-28.491-5.49-9.844-11.169-20.066-16.185-29.342l-.095-.284-.284-.095c-1.609-.852-3.597-1.42-5.584-1.704 1.135-3.028 3.218-9.37 3.975-12.683 1.23-5.395 1.798-11.074 1.704-16.659v-1.42l-1.325.568a52.655 52.655 0 00-18.931 13.63c.284-2.555.284-4.448-.095-8.992-1.04-9.749-5.11-17.132-8.045-22.432-.568-.947-1.041-1.894-1.515-2.745l-.567-1.231-.947 1.041c-4.165 4.922-10.79 14.577-12.589 28.017-3.123-3.691-7.288-7.666-11.453-10.695-5.206-3.786-10.506-6.437-15.712-7.762l-.852-.189-.284.852c-1.704 6.152-1.893 14.292-.284 20.35.852 3.502 3.218 8.992 4.827 12.494-9.465-2.555-19.025-2.745-28.395-.473l-1.23.284.567 1.041c6.058 11.075 12.967 16.943 18.93 21.202 3.976 2.84 7.762 4.449 11.643 5.963-2.272.947-4.544 2.177-6.815 3.692-11.642 7.951-15.429 19.404-16.47 24.042l-.284 1.136h1.325c6.437 0 11.927-.379 16.565-1.042 5.584-.851 13.44-4.638 16.659-6.436.094 2.556.567 5.206 1.42 7.856l.094.189 45.055 42.594c.094.095.094.19.189.284.852.947 2.461 1.42 4.543 1.42h.758c8.329-.379 21.675-7.288 34.358-25.272 2.84-3.881 2.461-6.91 1.231-8.519zm-34.264-87.932c0 5.016-.568 9.938-1.609 14.765-.758 3.408-3.029 10.128-4.165 12.873-4.354-.284-8.897.379-11.737 1.041l.568-1.041 10.412-3.407c.284-.095.378-.379.284-.568-.095-.284-.379-.379-.568-.284l-9.371 3.029 3.218-5.396 6.342-1.419c.284-.095.379-.284.379-.568-.095-.284-.284-.379-.568-.379l-5.49 1.231 3.218-5.301 2.461.757h.095c.189 0 .378-.094.473-.378.095-.284-.095-.474-.284-.568l-2.272-.663.19-.284c.094-.189.094-.473-.095-.568l.662-3.029c.095-.284-.094-.473-.378-.567-.284-.095-.473.094-.568.378l-.663 3.124c0 .189 0 .284.095.473l-1.609 2.745-1.988-3.408c-.094-.189-.378-.284-.662-.189-.19.095-.284.379-.19.663l2.177 3.691c0 .095.095.095.19.189l-3.692 6.247-2.555-4.732c-.095-.189-.379-.284-.663-.189-.189.094-.284.378-.189.662l2.839 5.206-1.798 2.84c-.189.094-.284.189-.284.378l-1.041 1.704c-3.124.852-6.058 2.082-8.898 3.502a49.64 49.64 0 017.289-15.712c6.341-8.992 14.387-14.009 20.445-16.848zm-28.964-20.729c.284.473.568 1.041.852 1.514 3.029 5.49 6.72 12.305 7.761 21.77.568 5.301.379 6.721-.094 10.223l-.095 1.041h.095l-1.42 1.988c-3.786 5.395-6.531 11.547-7.95 18.078-.663.379-1.231.757-1.8 1.136l.474-8.613c.095 0 .19-.095.19-.19l7.098-10.222c.19-.189.095-.473-.094-.663-.19-.189-.474-.094-.663.095l-6.436 9.276.473-9.655 7.572-8.045a.458.458 0 000-.663.458.458 0 00-.662 0l-6.816 7.289.284-9.56h.095l5.111-4.26c.19-.189.19-.473.095-.662-.19-.19-.473-.19-.663-.095l-4.543 3.786.284-6.247v-.095h.095l3.502-3.596a.458.458 0 000-.663.458.458 0 00-.663 0l-3.123 3.218-.852-3.502c-.095-.284-.284-.379-.568-.379-.284.095-.379.284-.379.568l1.041 4.26v.094l-.094 1.042-4.26-4.07a.456.456 0 00-.662 0 .457.457 0 000 .662l4.733 4.543.094.095-.568 10.601-5.679-5.774a.458.458 0 00-.662 0 .458.458 0 000 .663l6.247 6.342-.474 8.802-5.584-6.247a.458.458 0 00-.663 0 .458.458 0 000 .663l6.247 7.004-.473 8.614-4.26-6.058c-.188-.19-.472-.284-.662-.095-.19.189-.284.473-.094.663l5.11 6.909-.283 4.733v.189c-.568.379-1.136.852-1.704 1.231-2.934-5.49-6.436-14.293-6.342-25.273.19-15.428 7.1-26.597 11.832-32.465zm-16.754 45.717l8.14 11.358c-4.07-4.259-9.56-8.235-15.333-11.263l7.099-.095h.094zm-23.19-17.984c-1.42-5.395-1.325-12.684.095-18.457 4.638 1.325 9.465 3.691 14.103 7.193 4.638 3.408 9.182 7.762 12.305 11.832-.094 1.325-.189 2.65-.189 4.07-.095 9.276 2.272 17.037 4.827 22.716l-10.6-14.671.094-.094 3.597-8.898c.094-.284 0-.473-.284-.662-.284-.095-.474 0-.663.284l-3.407 8.424-4.544-6.342c.095 0 .095-.095.19-.189l3.691-6.91c.095-.189 0-.473-.19-.662-.189-.095-.473 0-.662.189l-3.502 6.72-4.26-5.963.095-.095 1.42-3.123c.095-.284 0-.473-.284-.663-.284-.094-.473 0-.663.284l-1.23 2.651-2.46-3.219c-.19-.189-.474-.284-.664-.094-.189.189-.284.473-.094.662l4.448 6.247-5.868.663c-.284 0-.473.284-.379.568 0 .284.19.378.474.378h.094l6.342-.757 4.543 6.247-8.329.758c-.284 0-.473.283-.473.473 0 .284.189.473.473.473l8.803-.757 5.584 7.761-7.004.095c-.19 0-.379.189-.473.379-.474-.19-.947-.474-1.325-.663-2.65-1.23-5.396-2.272-8.14-3.218-1.515-2.934-4.45-9.655-5.49-13.63zm-5.963 33.507c-5.584-3.975-12.02-9.371-17.794-19.499 12.115-2.65 24.42-1.135 36.536 4.544 7.099 3.313 14.103 8.519 18.74 13.724-1.419 1.231-2.65 2.461-3.88 3.692l-8.424-3.124.284-7.477c0-.284-.19-.473-.473-.473-.284 0-.474.189-.474.473l-.284 7.193-7.004-2.555v-.095l.473-7.667c0-.284-.189-.473-.473-.473s-.473.189-.473.473l-.473 7.478-3.408-1.231c-.095-.094-.19-.189-.379-.094l-3.69-1.325c.094-.095.094-.284.094-.379l-1.61-6.626c-.094-.284-.283-.378-.567-.378-.284.094-.379.284-.379.568l1.61 6.436-5.87-2.272c0-.094 0-.189-.094-.284l-4.543-6.436c-.19-.189-.473-.284-.663-.095-.19.19-.284.474-.094.663l4.259 5.963-5.774-1.42c-.284-.094-.473.095-.568.379-.095.284.095.473.379.568l6.53 1.514H45.7l1.23.473-3.029.947c-.284.095-.378.379-.284.568a.521.521 0 00.474.284h.189l3.691-1.231c.095 0 .19-.094.284-.284l7.005 2.651-7.194 3.218c-.284.094-.379.378-.284.662a.52.52 0 00.473.284h.19l8.045-3.596 7.478 2.744-8.803 3.881c-.284.095-.379.379-.284.663a.521.521 0 00.473.284h.19l9.465-4.165c.095 0 .095-.095.19-.095l11.642 4.26c-.38.473-.758.946-1.231 1.325v-.095c-3.313-.473-10.506-.852-18.457 1.988-4.544-1.798-8.898-3.408-13.252-6.531zm21.96 23.379c-.284 1.42-.474 2.745-.474 4.165l-.378-.663c-2.556 1.42-10.98 5.679-16.659 6.531-4.26.663-9.276.947-15.144.947 1.325-4.922 5.205-14.766 15.428-21.676 10.128-6.909 20.54-7.004 25.556-6.531-2.46 3.029-4.448 6.153-5.868 9.087-.095.189-.19.473-.379.757l-2.934 1.231c0-.095-.095-.19-.19-.19l-6.72-3.596c-.189-.095-.473 0-.662.189-.19.189 0 .473.189.662l6.342 3.408-5.206 2.177a.203.203 0 00-.19-.189l-6.341-4.26c-.19-.189-.473-.094-.663.095-.19.189-.094.473.095.663l6.058 4.07-1.893.851-2.083.852-6.247-1.987c-.284-.095-.473.094-.568.284-.094.284.095.473.284.568l5.206 1.703-6.72 2.84c-.284.094-.379.378-.284.662a.52.52 0 00.473.284h.19l3.123-1.325-1.798 3.692c-.095.189 0 .473.189.662h.19a.52.52 0 00.472-.284l2.272-4.638 3.408-1.419c.094 0 .189 0 .283-.095l1.326-.568-.947 4.354c-.095.284.095.473.379.568h.094c.19 0 .379-.189.474-.379l1.136-5.016 4.732-1.988-1.23 5.206c-.095.284.094.473.378.568h.095c.19 0 .378-.189.473-.379l1.42-5.868 5.017-2.083c-.947 2.367-1.515 4.922-1.704 6.058zm1.893.379c.284-1.42 1.041-5.111 2.271-7.572 5.017-9.939 15.807-21.96 30.952-25.935 4.07-1.041 13.062-2.367 18.457.378a1991.658 1991.658 0 0016.091 29.153c4.827 8.708 9.844 17.7 14.387 26.124-.662-.094-1.325-.189-2.177-.189-7.95.284-21.77 7.762-33.317 23.663-.947 1.231-2.745 4.354-3.124 7.099l-42.783-40.511c-1.325-4.165-1.609-8.235-.757-12.21zm82.537 31.235c-15.807 22.433-30.194 24.326-32.844 24.421-2.083.094-3.408-.284-3.787-.758-1.135-1.325.758-5.773 2.461-8.14 11.927-16.469 25.557-22.716 31.804-22.906h.284c1.419 0 2.555.284 3.218.852.095.189.284.473.378.663l.095-.095c.473 1.136.189 3.313-1.609 5.963z" fill="#1D1D1B"/><path d="M78.829 349.597a.456.456 0 00-.663 0 .457.457 0 000 .662l28.964 28.207c.094.094.189.094.284.094.094 0 .284-.094.378-.189a.457.457 0 000-.663l-28.963-28.111zM119.813 373.449c5.016-4.638 8.045-7.004 11.263-8.613.19-.095.284-.379.19-.663-.095-.189-.379-.284-.663-.189-3.313 1.609-6.436 3.975-11.548 8.708-5.205 4.827-8.802 10.696-10.033 14.103-.094.284 0 .473.284.568h.19a.521.521 0 00.473-.284c1.136-3.218 4.732-8.897 9.844-13.63zM107.792 312.019c3.88-.473 7.856-.284 11.831.568.284.095.474-.094.568-.378.095-.284-.094-.474-.378-.568a35.004 35.004 0 00-12.116-.663c-8.519 1.041-24.136 5.585-33.223 24.137-3.218 6.625-3.692 14.766-2.934 18.362 0 .19.284.379.473.379h.095c.283-.095.378-.284.378-.568-.662-3.407-.284-11.358 2.84-17.795 8.897-17.984 24.23-22.432 32.466-23.474z" fill="#1D1D1B"/></g><g style="animation:rabbit infinite 5s linear alternate"><path d="M177.101 314.502a69.39 69.39 0 013.413-9.948c6.732-16.39 17.066-26.717 22.091-31.265 7.774-6.916 15.643-11.464 22.185-14.401 12.894-1.042 23.797-2.937 32.14-4.642 23.797-4.927 35.742-7.485 45.034-14.401 10.713-7.958 14.79-16.769 25.598-17.243 1.327-.095 4.74-.095 12.609 3.127 2.465 1.042 17.255 7.2 28.158 18.474 19.246 19.801 21.901 49.929 22.659 58.551 2.086 24.538 21.712 41.213 19.721 66.13-.19 2.842-25.883 7.295-25.978 10.327 0 1.232-.189 5.495-1.043 11.085-1.232 7.863-2.465 15.917-7.584 24.443-1.802 3.032-6.163 9.664-13.842 15.254-3.982 2.937-5.215 2.842-12.231 7.674-2.559 1.8-6.541 4.642-11.282 8.811-3.034 2.653-6.636 6.158-10.429 10.611a78.226 78.226 0 003.224 13.454c1.706 4.831 3.128 7.105 4.266 12.032 1.043 4.263 1.327 7.958 1.422 10.421.474.379 1.043 1.043 1.707 1.801.474.568 3.034 3.694 3.318 7.484.19 2.937-1.043 5.306-1.991 6.916-6.826 11.748-18.867 23.307-20.194 24.539-5.689 5.305-8.533 8.053-10.239 9.095-.854.474-11.946 6.821-24.745 3.79-6.163-1.516-8.154-4.074-8.912-5.211-.569-.948-2.086-3.222-1.233-5.874.664-2.085 2.56-3.127 3.129-3.411-.948-4.832-.569-8.622 0-11.085 1.517-6.821 5.973-13.359 6.447-14.211 1.422-2.179 2.655-3.411 3.318-5.969.569-2.179.569-4.453-.095-7.674-1.422-6.822-4.076-9.001-7.11-16.39-.379-.948-1.233-3.79-2.844-9.38-3.224-10.801-3.888-14.401-3.982-18.38a33.888 33.888 0 01.284-5.874c-9.955-5.495-18.962-8.243-25.314-9.758-12.135-2.937-21.711-2.748-29.864-2.653-8.059.095-12.136.094-17.445 1.61-10.239 2.843-16.876 8.338-20.763 11.654-5.878 5.021-10.239 8.621-11.756 14.685-.474 1.705-1.233 5.874-1.802 9-.663 3.979-.948 6.253-2.37 9.19-1.043 2.085-2.18 3.695-3.034 4.643-.379 1.61-1.611 5.116-4.835 7.295-2.749 1.8-5.783 1.8-8.438 1.516-15.833-1.706-32.519-13.548-32.519-13.548-11.187-7.959-16.876-15.159-23.133-23.023-3.982-5.021-7.395-9.948-7.68-16.485-.094-2.084-.284-6.442 2.465-10.422 3.603-5.4 9.955-6.442 11.188-6.632 2.275-.379 4.171-.284 5.499-.094 2.18-1.516 6.921-4.169 13.273-4.264.663 0 3.982-.095 8.153 1.137 7.869 2.274 12.989 7.39 15.549 10.517 2.37-2.937 4.645-5.874 7.016-8.812 2.749-2.558 5.593-5.21 8.343-7.768 33.088 2.937 66.271 5.874 99.359 8.811 12.894-13.548 25.693-27.097 38.587-40.645-1.043-4.547-1.991-9.095-3.034-13.643l-41.337-.568c-1.801-15.159-3.508-30.318-5.309-45.476-2.465-1.232-4.93-2.558-7.395-3.79.19-4.737.285-9.38.474-14.117-.569-.663-1.232-1.231-1.801-1.894l-8.533 5.116c-2.37 3.505-4.835 7.105-7.205 10.611-14.316-.285-28.822-.569-43.328-.853z" fill="#EFEFEF"/><path d="M340.74 190.39a27.569 27.569 0 003.698-9.001c.569-2.937.569-5.495 1.896-5.969.853-.284 1.801.474 3.129 1.516 4.93 3.79 4.361 2.464 7.489 5.116 1.423 1.232 5.31 4.832 8.723 10.612 3.603 6.253 4.74 11.748 5.499 15.537.663 3.6 1.327 8.622.948 14.78.948.379 2.37.947 4.266 1.421 3.887.948 4.835.474 6.921 1.137 4.361 1.421 6.637 5.495 7.395 6.727 1.327 2.274 1.422 3.884 2.181 7.579 1.043 5.116.948 2.937 3.697 13.833 1.707 6.916 2.37 10.232 3.413 15.064 2.845 12.6 4.077 14.116 6.921 25.675 3.034 11.937 1.707 10.137 5.215 25.58 2.939 12.98 4.645 17.717 6.067 28.423 0 0 .854 6.442.38 16.674-.285 5.78-.854 9.096-2.75 12.412a20.666 20.666 0 01-5.309 5.874c.284.663 1.233 3.41 0 6.253-1.517 3.41-4.93 4.358-6.163 4.642-1.327.379-4.55.947-7.679-.758-4.361-2.368-5.12-7.011-5.214-7.579-.948-.474-2.181-1.137-3.413-2.274-.854-.758-2.276-2.084-3.224-4.074-.664-1.611-.758-3.032-.758-3.6-.095-3.506-.569-6.348-1.043-9.853-.095-.853 4.456.568 4.93 1.136.474.569 5.688 4.264 9.67 2.938 4.646-1.516 7.49-3.885 8.154-8.812.094-.473-1.422-7.01-5.973-8.811-7.49-3.031-10.24 1.327-10.808 1.137-1.423-.568-7.49-1.705-7.585-3.789-.19-4.359.284-9.38-1.233-19.328 1.707-3.032 3.698-11.653 5.12-17.053.474-1.8.474-5.685.948-12.317.379-5.684 1.043-16.39-3.318-29.275-4.456-13.075-11.756-21.317-15.359-25.391-8.628-9.569-17.824-15.064-24.081-18.191 4.55-1.042 9.196-2.084 13.747-3.126.379-1.895.853-4.737.569-8.243-.095-2.274-.948-10.895-6.826-17.717-2.655-3.031-6.637-6.063-8.059-7.2-.759-.663-1.612-1.232-2.181-1.705z" fill="#E64E6C"/><path d="M318.65 221.086c2.465-2.842 5.119-5.59 7.49-8.527 2.559-3.126 4.171-5.305 6.826-5.589.189 0 3.034-.285 4.456 1.421 2.654 3.316-2.276 11.558-5.499 15.822-2.181 2.842-4.551 5.021-10.808 9.663-6.921 5.116-11.093 8.243-17.35 11.748-14.601 8.243-28.158 11.654-34.7 13.075 0 0-19.056 4.074-45.413 1.042-.379 0-1.991-.189-3.982-.853-2.18-.663-4.645-1.421-6.542-3.505-.948-1.042-2.654-2.937-2.18-5.211.663-3.032 4.835-3.884 5.119-3.979 2.56-.474 4.741.474 5.404.758.285.095 6.353.947 18.488 2.558 10.903 1.516 22.28-1.327 29.675-3.032 15.833-3.79 26.546-10.043 34.984-15.064 6.921-4.074 10.524-6.158 14.032-10.327z" fill="#EFEFEF"/><path d="M152.072 164.051c1.612 8.148 6.731 26.433 17.539 44.434 3.508 5.874 11.188 15.728 21.901 24.728 2.37 1.99 10.998 7.864 23.133 12.601 21.806 8.432 40.863 3.6 50.912 1.421 10.903-2.274 28.443-7.864 46.077-22.264 7.3-5.874 19.436-16.012 29.011-34.581 8.343-16.106 12.515-30.602 13.653-38.371 4.266-29.749 2.37-72.194-20.858-106.585-6.542-9.664-22.849-29.749-47.973-38.276-26.926-9.095-51.196-4.737-58.781-2.368-9.102 2.842-39.63 9.948-57.928 37.897-14.79 22.454-17.634 40.739-19.341 55.329-2.18 17.622-1.043 36.381-.758 40.55.379 5.021 1.801 17.053 3.413 25.485z" fill="#EFEFEF"/><path d="M207.44 230.56c8.533 11.938 14.885 15.254 17.35 16.391.569.284 1.422.663 2.56 1.042 6.826 2.558 12.893 2.463 21.711 1.516 9.765-1.042 14.6-1.516 21.806-3.411 6.067-1.516 17.349-4.547 30.243-12.222 10.808-6.442 20.858-12.411 24.366-23.875.853-2.747.948-5.21 1.232-10.137.38-7.106.854-15.917-3.887-28.707-1.706-4.642-7.395-15.159-11.282-20.749-5.688-8.053-11.851-14.021-16.307-15.632 2.844-8.906 7.68-24.065 5.12-48.034-1.517-13.833-6.826-29.465-9.481-37.708-3.603-11.084-10.429-22.17-11.661-23.117-1.707-1.326-10.145-8.716-20.669-5.78 0 0-7.395.096-10.334 12.317-2.654 11.085 5.025 39.413 5.12 40.929.095 2.084 2.275 6.253 3.318 10.99 1.991 8.716 3.982 10.706 6.068 19.043 1.138 4.169 3.698 4.548 5.973 15.633 1.327 6.348 4.361 9.474 5.12 12.79-4.741.853-21.522 1.326-28.064 4.074-5.309 2.179-11.945 5.305-11.945 6.632.094-9.38.853-16.77.189-22.075-1.422-10.611-.474-11.653-.853-24.16-.095-4.642.569-20.464.758-28.99.19-8.622-.758-23.591-2.275-27.097-5.215-12.79-4.551-13.737-23.607-18.38-4.836-1.231-12.705 10.99-18.298 20.844-5.689 9.853-3.413 31.928-.474 54.192.758 5.495 1.706 10.138 5.025 19.707 2.559 7.295 2.654 7.768 6.541 16.864 2.181 5.116 9.291 14.874 15.17 21.696 1.042 1.231-6.542 9.095-10.619 20.18-.664 1.516-3.792 8.053-4.93 14.211-.948 5.211-5.499 17.812.853 31.454 1.707 3.222 2.845 4.927 6.163 9.569z" fill="#fff"/><path d="M281.201 129.47c1.137 0 .284-1.231 1.422-1.231.663-7.58 1.043-15.159 1.706-24.823 0 0 .664-11.369-1.422-39.034-.189-2.273-1.327-5.305-4.551-8.81-.474-.569-3.697-1.327-7.11-.474-5.215 1.231-6.921 12.316-7.206 18.475-.189 6.063.474 4.642 3.698 18.853 3.129 13.643 5.025 13.454 8.248 24.917 1.517 5.306 4.267 9.475 5.215 12.127zM199.761 77.362c-1.328 3.79-2.845 10.895-2.75 12.885.19 3.6.759 6.064 1.801 9.759 2.845 10.895 4.267 16.39 5.12 19.043 1.422 4.358.569 2.274 5.12 13.358 2.654 6.538 6.257 9.948 9.101 12.601.948-1.326 1.802 2.084 2.845.758-2.465-12.695 0-8.432-1.043-15.348-.854-5.779-1.233-28.423-5.404-44.908-1.612-6.443-1.802-8.053-6.068-11.085-3.129-2.179-7.206-1.421-8.722 2.937z" fill="#F7D7DE"/><path d="M237.115 204.791c1.612 1.705 3.982 1.61 4.74 1.515 3.129-.189 4.93-2.558 5.31-2.937.568-.663 2.275-2.842 1.422-4.453-.759-1.515-3.129-1.61-4.361-1.705-2.845-.189-7.775.663-8.438 3.695-.474 1.895 1.232 3.695 1.327 3.885z" fill="#F2C7D2"/><path d="M145.625 399.107c2.655 0 5.309.095 8.059.095-3.129-1.422-6.163-2.843-9.292-4.264-1.327-.947-3.223-2.653-4.835-5.4-1.991-3.411-2.465-6.632-2.56-8.337-6.731-19.517-13.367-39.034-20.099-58.551 0-.474-.189-3.6 2.181-6.064 2.56-2.747 5.973-2.558 6.447-2.558l111.21 1.99c.758 0 4.55.095 6.826 2.747 1.517 1.801 1.801 4.169 1.991 5.78.189 1.61.095 2.747.095 3.031-.19 2.558.948 12.222 4.835 37.708l39.914.853c1.233 4.452 2.465 8.811 3.698 13.263-12.705 13.643-25.504 27.191-38.208 40.834-36.122-3.316-72.339-6.632-108.461-9.948-.568-3.884-1.137-7.579-1.801-11.179z" fill="#fff"/><path d="M262.145 275.089h.094c.474-.094.854-.568.854-1.042a20.956 20.956 0 01-.285-3.505.95.95 0 00-.948-.948.95.95 0 00-.948.948c0 1.231.19 2.463.285 3.695.094.473.474.852.948.852zM148.09 470.069c-.284-.474-.853-.569-1.327-.19l-16.022 11.085c-.475.284-.569.853-.19 1.327.19.284.474.379.758.379.19 0 .38-.095.569-.19l16.023-11.085c.379-.284.474-.852.189-1.326zM137.661 460.879c-.284-.379-.948-.474-1.327-.19l-14.695 10.99c-.38.285-.474.948-.19 1.327.19.284.474.379.759.379.189 0 .379-.095.568-.19l14.696-10.99c.379-.284.474-.853.189-1.326zM131.878 448.278c-.284-.379-.948-.474-1.327-.189l-22.849 17.053c-.379.284-.474.948-.189 1.327.189.284.474.379.758.379.19 0 .379-.095.569-.19l22.849-17.054c.474-.284.568-.852.189-1.326zM150.176 480.49l-6.068 4.643c-.379.284-.474.947-.189 1.326.189.284.474.379.758.379.19 0 .379-.095.569-.189l6.068-4.643c.379-.284.474-.947.189-1.326-.284-.379-.948-.569-1.327-.19zM120.027 442.025c-.284-.379-.948-.474-1.327-.189l-16.023 12.6c-.379.285-.474.948-.189 1.327.189.284.474.379.758.379.19 0 .379-.095.569-.19l16.023-12.601c.474-.284.568-.947.189-1.326zM113.201 434.161c-.285-.473-.853-.568-1.327-.189l-17.92 12.601c-.473.284-.568.852-.189 1.326.19.284.474.379.759.379.19 0 .379-.095.569-.189l17.918-12.601c.474-.284.569-.853.19-1.327z" fill="#1D1D1B"/><path d="M392.316 233.403c-2.37-6.916-9.196-10.611-19.246-10.422.19-2.653.19-5.306 0-7.958-.284-4.264-.948-14.212-7.3-24.16-5.689-8.905-11.946-12.979-16.876-15.348.189-.568.379-1.137.569-1.8 8.058-25.201 8.438-50.119 6.067-65.088-.094-.758-.284-1.705-.379-2.653-2.749-18.19-10.998-73.425-59.729-96.068C264.894-4.211 213.697-2.98 184.117 23.738c-15.548 14.022-26.356 32.876-32.329 56.088-4.835 18.948-5.025 36.002-5.12 43.297-.189 13.358 1.327 81.573 48.542 113.785 5.878 3.979 11.946 7.011 18.013 9.19-.663.379-1.232.758-1.611 1.232-1.422 1.61-1.707 4.074-1.328 5.684.854 3.411 5.499 5.59 11.567 7.011-11.093 5.495-21.047 13.264-28.916 22.738-7.585 9.19-13.179 19.612-16.687 31.076l-50.627-.853c-2.939-.474-6.068.758-7.775 3.127-1.801 2.463-1.991 5.779-.568 8.432 3.508 10.8 6.921 21.222 10.334 31.549 3.413 10.422 6.826 20.843 10.429 31.833a16.183 16.183 0 003.318 5.306c1.801 1.895 5.12 3.695 8.153 5.021l-5.404-.379 3.129 12.885 7.49.663c-2.086 1.516-4.835 3.885-7.395 6.917l-1.233 1.515c-2.18 2.558-3.792 4.453-4.835 6.443-3.223-3.506-7.49-6.916-12.989-9.001-2.939-1.137-9.006-3.505-16.401-1.8-3.034.663-6.068 2.085-8.723 3.885-3.982-.284-7.869.379-11.472 2.463-3.033 1.705-4.835 4.358-5.404 5.306h-.095c-.094.094-.094.189-.094.189-.095.19-2.276 3.885-2.086 9.095.19 7.959 8.153 22.454 25.693 36.95 1.707 1.421 17.16 13.927 35.648 17.811 1.801.379 3.697.664 5.594.664 2.465 0 4.93-.569 7.015-2.085 2.465-1.895 3.698-4.642 4.267-7.105.948-1.232 1.896-2.558 2.654-3.98 2.845-5.305 3.129-10.137 3.319-12.695 0-.284 0-.569.094-.758.948-12.506 16.592-24.254 26.926-28.991 9.576-4.453 18.013-4.548 26.167-4.548h.664c17.255 0 34.415 4.169 51.196 12.411-.19 9.285 1.991 17.244 3.034 21.412.189.853.379 1.611.569 2.085 1.517 6.537 3.887 11.558 5.973 15.916 3.033 6.253 5.404 11.275 4.361 18.191-.19.095-.285.189-.474.284-6.447 9.19-11.756 21.033-9.765 29.654l-.095-.094-2.655 3.41v.285c-.19 1.989.095 3.789.759 5.4.758 1.61 1.516 3.221 2.275 4.737 2.275 4.737 6.636 8.432 11.851 9.379 4.077.758 8.533 1.232 14.032.285 9.006-1.706 15.833-6.253 20.573-10.801 7.49-7.295 11.756-15.064 16.971-21.317 5.404-6.537 5.688-13.169 3.602-19.991-.284-1.042-.663-1.989-.948-2.937 0-.094-.095-.189-.095-.379v-.094c-.284-.853-.663-1.611-1.232-2.464-1.612-2.179-2.75-3.031-3.698-3.41-.189-5.306-1.422-9.948-2.275-12.98-.758-2.748-1.517-4.927-2.37-7.2-1.043-2.653-2.086-5.401-3.129-9.569-.474-1.99-.948-3.98-1.327-5.969a196.974 196.974 0 018.912-8.906c8.817-8.053 14.979-11.748 19.909-14.78 3.698-2.274 6.921-4.168 10.24-7.295 13.652-12.601 16.686-32.496 17.065-45.192 1.233 1.421 3.129 3.032 5.499 4.169l-.19.094c1.328 5.211 5.594 9.001 10.429 9.285h.569c2.75 0 6.163-1.042 8.438-4.168 2.37-3.222 1.991-6.822 1.801-8.148 7.016-5.022 7.964-14.117 8.249-24.349.189-11.748-9.102-54.003-27.779-125.249zm-21.142-10.327c-.379 0-.759 0-1.138.095-3.887.284-7.205.757-11.377 1.421.19-1.611.379-3.695.285-6.064l12.325-1.895c.094 2.085.094 4.264-.095 6.443zm.095-7.959v.474l-12.325 1.895c-.095-2.084-.474-4.453-1.138-6.821l12.515-3.506c.568 3.411.758 6.253.948 7.958zm-1.233-8.905l-12.515 3.505c-.568-1.8-1.232-3.6-2.18-5.4l11.851-6.916c1.327 3.126 2.275 6.158 2.844 8.811zm-12.989 18.569c-3.508.663-7.679 1.421-13.083 2.558-4.266-2.274-7.68-3.789-9.671-4.547 3.698-4.548 6.163-9.19 4.93-12.98-.284-.948-1.327-3.316-3.507-3.979-.854-.285-1.802-.285-2.75 0 3.129-4.074 5.973-8.622 8.628-13.548 3.508 2.084 8.153 5.779 11.471 11.653 4.741 8.337 4.362 16.58 3.698 20.654l.284.189zm7.206-32.875c1.043 1.515 1.801 3.126 2.56 4.642l-11.851 6.916c-.095-.095-.095-.189-.19-.379a40.708 40.708 0 00-3.034-4.453l10.619-9.569c.569.948 1.232 1.895 1.896 2.843zm-2.56-3.506l-10.619 9.569a34.653 34.653 0 00-4.645-4.548l8.438-12.032a37.129 37.129 0 016.826 7.011zm-7.585-7.579l-8.438 12.032c-1.137-.853-2.18-1.516-3.223-2.179a107.252 107.252 0 005.878-13.359c1.801.948 3.792 1.99 5.783 3.506zm-157.855 54.571c-46.456-31.644-47.878-99.005-47.689-112.175.569-43.581 12.989-76.551 36.786-98.058 17.255-15.537 42-22.264 65.512-22.264 16.118 0 31.571 3.126 43.802 8.81 47.878 22.17 56.031 76.742 58.686 94.648.189 1.043.284 1.895.379 2.653 2.37 14.685 1.991 39.318-5.973 64.141-4.645 14.4-11.566 26.054-19.341 35.339-.569.473-1.043.947-1.611 1.515.568-1.894.853-3.979 1.327-12.695.569-9.001-2.939-24.254-7.585-33.255-5.593-10.895-14.316-24.727-24.176-29.843 4.172-10.138 6.068-21.886 5.594-35.908-.474-13.927-5.783-41.213-11.851-54.287-.285-.663-.569-1.326-.948-2.18-3.508-8.052-10.714-24.916-29.201-23.306-6.163.569-10.524 5.116-12.894 13.548-.095.19-.095.38-.19.569-3.223 10.327 4.456 38.181 9.102 54.856 1.043 3.79 3.413 9.948 6.352 17.716a926.61 926.61 0 019.481 25.581c-7.49 0-14.411.947-21.142 2.747-6.068 1.611-12.325 4.548-15.928 6.917.284-17.717 0-28.992-.285-38.182-.094-3.22-.189-6.252-.189-9.095 0-2.084.095-5.4.284-9.095.759-18.475 1.991-49.36-9.196-57.224-2.37-1.706-10.524-6.348-16.876-5.78-9.291.663-22.09 19.707-23.986 35.529-1.233 10.137 3.792 43.107 5.783 49.266.284.947.664 1.989.948 3.126 3.982 12.506 9.86 31.455 24.176 46.234-6.542 7.959-16.686 26.718-17.634 45.666v.758c-.285 5.211-.759 14.875 6.541 27.286 4.931 8.337 10.335 13.453 14.601 16.58-.853-.095-1.612-.19-2.275-.095a82.976 82.976 0 01-20.384-10.043zm21.142-80.91c-14.411-14.495-20.384-33.538-24.271-46.044-.379-1.137-.664-2.179-.948-3.127-1.896-5.969-6.921-38.465-5.688-48.413 1.896-16.106 14.6-33.35 22.279-34.013 5.405-.473 12.894 3.506 15.644 5.495 10.334 7.39 9.101 38.75 8.438 55.614-.19 3.98-.285 7.106-.285 9.285 0 2.937.095 5.874.19 9.19.284 9.379.569 21.127.19 39.981v2.084l1.611-1.326c2.845-2.274 10.05-5.969 16.781-7.674 6.921-1.895 14.127-2.748 21.996-2.653h1.327l-.474-1.231c-3.508-10.138-7.016-19.423-9.86-26.813-2.939-7.768-5.309-13.832-6.352-17.527-4.551-16.485-12.136-44.055-9.102-53.813 0-.19.095-.38.19-.569.758-2.842 3.223-11.464 11.187-12.127 17.161-1.8 23.797 13.643 27.305 21.886.379.852.664 1.61.948 2.179 5.973 12.885 11.282 39.886 11.661 53.624.475 14.116-1.422 25.864-5.783 35.907l-.379.853.853.379c9.671 4.642 18.488 18.569 24.082 29.465 4.55 8.716 7.869 23.496 7.395 32.212-.664 10.137-.854 10.895-1.612 13.359-.19.758-.474 1.705-.853 3.126-14.98 16.012-31.382 23.97-38.113 26.812-8.628 3.6-32.614 12.032-58.876 7.295-3.413-1.61-12.799-6.158-20.953-19.99-7.016-11.938-6.542-20.844-6.257-26.149v-.758c.853-17.906 10.903-37.234 17.729-45.192l.569-.663-.569-.664zm-5.214 98.153c-.19-.947-.19-2.747.853-3.979.758-.947 1.991-1.326 3.318-1.421 3.318 1.042 6.637 1.895 9.955 2.463h.095a92.281 92.281 0 0016.591 1.516c19.91 0 36.596-5.969 43.517-8.906 6.826-2.842 23.607-11.084 38.871-27.475h.095c0-.095 0-.095.095-.189l.19-.19c0-.094.094-.094.189-.189a83.04 83.04 0 003.793-4.358c1.991-1.706 3.887-2.558 5.309-2.085 1.327.474 2.086 2.274 2.275 2.843 1.043 3.031-1.327 7.389-5.119 11.842a.856.856 0 00-.569.569v.189c-5.025 5.685-12.23 11.464-17.635 15.349-23.796 16.864-48.067 20.843-60.487 21.601-16.307.852-39.725-1.042-41.336-7.58zm-17.824 31.455c8.248-9.948 18.866-18.001 30.623-23.402 6.447 1.137 13.842 1.422 19.909 1.422 3.508 0 6.542-.095 8.723-.285 2.18-.189 4.835-.379 7.679-.758 0 .474-.095 1.043-.095 1.516 0 .569.38.948.854 1.042h.094c.474 0 .949-.379.949-.852 0-.663.094-1.232.189-1.895 13.558-2.084 32.899-7.39 51.86-20.938 2.655-1.895 11.567-8.432 17.824-15.538 6.732 2.558 41.431 17.243 50.533 52.677 2.654 10.232 3.318 20.654 2.18 30.507-3.223-1.421-6.162-1.611-8.817-.569-3.413 1.422-6.067 4.738-7.964 9.948-1.896 5.211-2.844 11.654.569 16.864-.379.569-.474.758-.948 1.422-.189.189-.095.473.095.663.095.095.19.095.284.095.19 0 .285-.095.38-.19.379-.568.568-.758.853-1.137 1.138 1.421 2.655 2.748 4.74 3.885-.474.663-.853 1.326-1.327 1.989-10.144 14.306-27.115 21.791-32.14 23.78-4.456 1.801-24.176 6.348-37.165 1.232-2.086-.853-7.016-3.79-7.679-13.169-.19-3.032 4.077-5.021 8.248-7.011 2.465-1.137 4.741-2.274 6.352-3.6 1.896-1.611.759-3.885-.189-5.969-.664-1.421-1.328-2.937-.948-3.884.189-.379.568-.758 1.232-1.043 3.224-1.326 5.594.19 7.68 1.516 1.516 1.043 3.033 1.99 4.455 1.043 9.007-5.685 15.644-13.738 18.867-18.002l.095-.189c2.465-5.116 5.404-23.875-2.465-36.192-.284-.473-.853-.568-1.327-.284s-.569.853-.285 1.327c5.594 8.716 5.404 21.696 3.793 29.37-.19-.19-.38-.379-.569-.663-2.086-2.274-7.585-8.243-14.506-12.317-4.835-2.747-10.618-4.358-16.402-5.116v-.284c-.663-5.401-5.309-12.696-13.273-11.938a468.307 468.307 0 00-31.76 4.169c-.285-.663-.475-1.421-.664-1.99-.19-.473-.664-.758-1.233-.663-.474.19-.758.663-.663 1.232.189.568.379 1.137.569 1.8-5.405.947-10.524 1.8-15.454 2.747-3.508.664-6.163 5.401-5.973 10.99.095 3.601 0 6.917 0 9.854-.095 3.789-.095 6.726.095 8.905-1.517-.947-3.034-1.326-3.887-1.515.284-1.611.474-3.316.568-4.927l.095-1.042c.285-5.116.379-8.527-1.517-9.474-3.602-1.801-10.713 5.874-10.808 5.968-2.465 2.653-4.456 5.78-5.973 9.19l-42.569-.663c3.508-10.8 8.912-20.843 16.213-29.654zm206.018 71.625c-2.465-1.8-4.551-1.99-7.016-2.179-.853-.095-1.707-.095-2.655-.284 1.517-.758 3.129-1.232 4.835-1.232 5.405 0 9.861 4.074 9.861 9.095 0 5.022-4.362 9.096-9.861 9.096-2.559 0-4.93-.853-6.731-2.464.569.095 1.138.19 1.612.284 1.232.19 2.275.285 3.318.285 3.982 0 6.637-1.232 8.438-3.885 1.707-2.653.379-7.105-1.801-8.716zm-7.206-1.232c2.37.19 4.361.379 6.542 1.99 1.896 1.421 3.034 5.305 1.612 7.39-1.991 2.937-5.404 3.979-10.808 3.221-4.836-.663-9.86-2.937-14.032-5.59v-.095c0-.284-.284-.473-.474-.473-.095 0-.19 0-.19.095-5.214-3.316-9.196-7.106-10.334-8.811a53.746 53.746 0 008.154-8.527c6.542 8.432 11.946 9.569 15.548 10.327h.19c1.327.284 2.655.379 3.792.473zm-19.056-11.653c.284-.379.569-.758.758-1.042 1.517-2.179 2.939-4.453 4.172-6.822.095.948.284 2.274.474 5.116.095 1.516.379 2.843.569 4.169.284 1.99.569 3.695.569 5.211-1.897-1.421-4.077-3.506-6.542-6.632zm1.138-4.927c-8.818-4.926-7.87-13.832-5.499-20.464 1.801-4.927 4.361-8.148 7.395-9.474 2.37-.948 5.214-.758 8.343.663-1.327 10.611-4.741 20.654-10.239 29.275zm-122.303 40.834a362.676 362.676 0 01-.853-7.011c2.275.095 4.077.19 5.783.379l-4.93 6.632zm5.973-6.537c.569.095 1.138.095 1.707.19 2.559.284 5.309.568 9.291.758-1.991 2.368-3.698 4.452-5.404 6.726-.19.19-.285.379-.474.569l-10.524-.948 5.404-7.295zm4.456 9.19a634.935 634.935 0 01-8.722 10.706c-.38-2.463-.854-6.348-1.517-11.559l10.239.853zm-8.533 11.843c4.741-5.685 7.774-9.474 10.429-12.79 1.896-2.464 3.792-4.737 5.973-7.39l.569-.758h-.948c-4.456-.19-7.395-.474-10.145-.853-2.654-.284-5.119-.568-8.817-.758-.189-1.421-.379-2.937-.474-4.547 10.239.189 16.781.284 23.228.379 4.551.094 9.007.094 14.79.189L252 405.549l-3.129-.189c1.707-.758 3.319-1.8 4.172-3.032 2.18-3.126 1.896-7.579 1.801-9.095zm35.932-25.107c.759 3.411 1.233 5.495 1.897 8.527l.569 2.369a5439.092 5439.092 0 01-19.152 20.369 14251.43 14251.43 0 01-18.298 19.422l-2.18-12.221 37.164-38.466zm1.423-2.463l-.19-.758h-.758c-6.637-.095-11.567-.19-16.592-.284-6.447-.095-12.989-.19-23.228-.379v1.326c-.379-3.316-.758-6.916-1.232-10.8-.948-8.622-2.086-18.475-3.319-29.276.095-1.326 0-3.884-1.611-6.348-.19-.379-.474-.663-.759-.947v-.189c-.569-1.895-.474-5.78-.474-10.612 0-2.937.095-6.347 0-9.948-.095-4.642 1.896-8.621 4.456-9.095 12.61-2.368 26.546-4.832 42.948-6.632.19 0 .379.095.664.095 2.18.474 7.964 1.611 9.86 8.906-5.404-.19-10.429.094-14.127.473-1.896-1.61-4.361-2.463-6.826-2.463-5.688 0-10.334 4.264-10.334 9.569 0 5.306 4.646 9.569 10.334 9.569 2.655 0 5.215-.947 7.111-2.653 1.991-.094 3.792-.189 5.499-.284 3.318-.189 6.257-.284 9.007-.284 0 5.495.094 12.79.284 19.801.095 6.916.19 14.022.284 19.517-4.456 2.084-8.817 4.453-8.532 8.432.663 9.19 5.119 12.98 7.869 14.306-.664 1.516-2.086 4.074-4.267 5.021-1.611-.094-3.128-.379-3.887-.473-.284 0-.474-.095-.569-.095h-.094c-.569-1.326-.949-3.032-1.517-5.495zm18.866-50.024c0-3.6-.094-7.106-.094-9.664 3.128.853 6.257 2.179 9.765 4.548 5.404 3.6 13.557 11.085 13.747 11.274-3.223 3.411-7.395 7.201-12.23 10.232-.379.285-1.422-.379-2.37-1.042-1.991-1.326-4.93-3.221-8.723-1.895 0-3.6 0-8.621-.095-13.453zm10.24-5.874c-9.576-6.348-16.781-5.969-27.779-5.495-2.465.095-5.309.284-8.343.284-1.517 0-9.007-.095-9.197-5.874-.189-4.547 4.267-5.4 9.671-6.063 8.059-.948 28.063-2.369 40.862 5.021 6.826 3.884 12.23 9.853 14.316 12.127.664.758.948 1.042 1.043 1.137-.379 1.61-.758 2.842-1.232 3.79-1.233 1.705-3.129 3.979-5.404 6.537-.285-.284-8.438-7.864-13.937-11.464zm-12.136 27.001c.854 1.895 1.328 3.127.664 3.695-1.422 1.137-3.508 2.18-5.878 3.222 0-5.401-.095-12.317-.285-19.044-.094-7.01-.284-14.306-.284-19.706 1.991.095 3.792.284 5.594.569 0 .094-.095.189-.095.189 0 2.653 0 6.158.095 9.853.094 5.306.094 10.801 0 14.496-.474.379-.759.852-1.043 1.326-.379 1.8.474 3.6 1.232 5.4zm-22.659-31.264c-1.612 1.042-3.508 1.705-5.499 1.705-5.119 0-9.386-3.885-9.386-8.622s4.172-8.621 9.386-8.621c1.991 0 3.887.568 5.499 1.61-.379 0-.664.095-.948.095-4.551.569-10.713 1.232-10.524 7.011.285 6.822 9.197 6.822 10.145 6.822h1.327zm16.402-14.496c-1.422-6.253-5.689-8.527-8.628-9.379l3.129-.285c6.542-.568 10.524 5.59 11.187 10.043-1.896-.19-3.792-.284-5.688-.379zm.379 76.362c.095 0 .095.095.19.095 1.137.474 2.37.853 3.602 1.137-.663 1.232-1.516 2.179-2.749 2.842-1.138.569-2.749.758-4.456.663 1.707-1.326 2.75-3.316 3.413-4.737zm-66.176-58.456l-.095 1.042a41.104 41.104 0 01-.569 4.927l-13.652-.189c1.327-2.937 3.129-5.59 5.215-7.959 3.223-3.411 7.395-6.158 8.627-5.59.853.474.664 4.738.474 7.769zm-94.334 83.279c-1.233-1.327-2.275-2.937-2.939-4.643-3.603-10.99-7.016-21.411-10.429-31.833-3.413-10.327-6.826-20.749-10.429-31.644l-.095-.189c-1.137-2.085-.948-4.643.38-6.538a5.87 5.87 0 015.972-2.368h.095l112.253 1.8c.664.095 3.982.568 5.973 3.505 1.327 2.085 1.422 4.169 1.327 5.211v.19c1.233 10.895 2.371 20.748 3.319 29.37 2.275 19.801 3.697 32.875 4.55 37.897.285 1.705.38 5.684-1.422 8.147-1.422 1.99-5.404 3.316-7.584 3.79l-87.319-5.969c-1.611-.284-10.618-3.505-13.652-6.726zm5.973 16.959l-2.181-9.001 9.671.663 87.508 6.158v.095c.094 0 .189 0 .284-.095l7.869.569 1.991 11.369-105.142-9.758zm5.309 80.531c-2.654.852-5.783.473-8.627-.19-18.014-3.79-33.088-16.011-34.795-17.433-19.436-16.106-24.84-29.938-25.03-35.528-.094-4.358 1.612-7.579 1.802-8.053 2.75-2.084 8.438-2.842 14.885-1.895 11.567 1.611 24.84 13.264 28.632 16.77 10.998 10.232 18.772 20.464 21.901 28.706l.094.285c3.034 7.579 3.414 13.832 1.138 17.338zm12.23-24.444c0 .284 0 .474-.094.853-.095 2.463-.38 7.011-3.034 11.937-.095.19-.285.474-.379.663v-.947c-.285-13.169-20.953-35.907-21.806-36.95-3.793-3.694-19.531-18.285-34.795-20.938a20.514 20.514 0 016.163-2.463c6.731-1.516 12.514.663 15.264 1.8 12.42 4.832 18.392 16.296 20.289 21.033.189.474.758.758 1.232.474.474-.19.759-.758.474-1.232-1.043-2.558-3.318-7.106-7.016-11.558 1.043-1.99 2.655-3.98 4.93-6.727l.948-1.137c2.655.474 10.24 2.179 16.213 5.874 4.835 3.032 9.955 9.095 15.169 17.906-6.826 5.78-12.989 13.169-13.558 21.412zm171.793 30.981c.569.379 1.232 1.137 2.18 2.368 1.991 2.748 1.612 5.969 1.138 7.674-.379 1.516-1.138 2.464-1.422 2.937-10.429 14.117-16.402 21.128-24.65 28.613a51.164 51.164 0 01-4.172 3.505c-1.611.947-3.318 1.895-4.93 2.842-10.049 4.548-25.219 4.169-29.106-2.937-.758-1.421-1.043-3.031-.948-4.926l1.612-1.99c.379.853.758 1.705 1.327 2.463 2.844 4.074 7.869 6.253 13.652 6.253 1.423 0 2.94-.189 4.551-.473 2.276-.474 9.102-1.706 23.892-17.338 9.196-9.664 14.221-14.969 15.833-19.991.569-3.221.948-6.158 1.043-9zm-4.077-14.685c1.327 4.926 3.698 14.022.948 22.927-1.327 4.358-5.688 9.096-15.359 19.233-9.575 10.043-17.255 15.727-22.943 16.769-6.827 1.327-13.084-.663-16.213-5.021-5.404-7.674.38-21.506 7.68-31.928.379-.095.664-.379.758-.758 1.328-7.769-1.327-13.359-4.456-19.801-.284-.569-.569-1.232-.853-1.8 5.025 1.895 13.273 4.168 22.47 4.168 1.137 0 2.275 0 3.413-.094 12.894-.853 18.298-4.548 21.9-7.011a7.578 7.578 0 011.328-.853c.474 1.232.853 2.558 1.327 4.169zm32.804-55.519c-3.224 2.937-6.353 4.832-9.955 7.011-5.025 3.031-11.282 6.821-20.194 14.969-2.75 2.558-5.499 5.211-8.059 7.958-.474-2.937-.759-5.779-.948-8.716 0-.568-.474-.947-1.043-.853-.569 0-.948.474-.853 1.042.189 3.127.474 6.253.948 9.38l-5.594-1.232c-.474-.094-1.043.19-1.138.758-.094.474.19 1.042.759 1.137l6.352 1.421c.379 1.99.853 4.074 1.327 6.064 1.138 4.263 2.181 7.105 3.224 9.758.095.379.284.663.379 1.042-.569.379-1.138.664-1.707 1.137-1.99 1.421-4.645 3.222-9.101 4.548.095-.095.19-.284.095-.474-.285-.947-.474-1.895-.664-2.747-.095-.285-.284-.379-.569-.379-.284.094-.379.284-.379.568.19.853.474 1.8.758 2.748.095.189.19.284.38.379-2.939.947-6.637 1.61-11.472 1.895-11.472.757-22.09-2.559-26.926-4.738-1.422-3.221-2.844-6.916-3.792-11.179a14.898 14.898 0 00-.569-2.179c-1.138-4.074-3.223-12.033-3.034-21.128.38 1.327.854 2.653 1.422 3.979 2.181 4.643 5.405 7.864 9.292 9.001 1.043.284 2.085.474 3.223.474 3.224 0 6.826-1.232 10.145-3.601 6.067-4.263 10.049-11.084 10.428-17.716.38-7.106-3.318-18.096-12.893-20.275-5.31-1.232-10.524.852-14.506 4.358 4.456-7.485 10.334-12.222 16.876-16.959 10.144-7.39 10.239-7.39 11.566-8.243.285-.189.664-.379 1.138-.663.474-.284.569-.852.285-1.326-.285-.474-.854-.569-1.328-.284-.474.284-.758.473-1.043.663-.853.474-1.232.663-3.128 2.084l-.095-2.558c0-.568-.474-.947-.948-.853-.569 0-.948.474-.854.948l.19 3.505v.19c-1.517 1.137-3.697 2.653-6.826 4.926-8.722 6.348-16.497 12.791-21.332 25.676l-.284.568c-.854 1.8-1.422 3.79-1.707 5.779-.664 2.843-1.043 5.685-1.232 8.432-16.971-8.242-34.416-12.411-51.955-12.316-8.343.095-16.971.095-27.021 4.737-3.507 1.611-8.343 4.453-12.988 8.053-1.422-2.463-2.939-4.737-4.361-6.727a19.558 19.558 0 011.991-1.989.459.459 0 000-.663.458.458 0 00-.664 0c-.664.663-1.327 1.326-1.896 1.989-3.603-5.021-7.206-8.621-10.714-10.8-5.498-3.506-12.325-5.211-15.738-5.969 2.939-3.221 5.973-5.401 7.68-6.537l55.842 5.116a.52.52 0 00.474.284c.569 0 1.137-.095 1.801-.095l31.666 2.937c0 .19.19.379.379.379.948.19 1.802.379 2.75.569h.094c.19 0 .38-.19.475-.379v-.19l4.93.474.284.284c6.731-7.106 12.989-13.832 19.341-20.559s12.609-13.548 19.435-20.749l.38-.379-.759-3.41c-.189-.948-.379-1.895-.663-2.748 1.232.19 3.697.569 6.162.569 1.801 0 3.698-.19 5.025-.853 1.706-.853 3.034-2.274 3.792-4.074 3.129.663 6.447.853 9.671.853 10.903 0 21.142-2.843 23.417-3.79 3.603-1.421 13.463-5.779 22.659-13.453 1.328 1.895 5.499 5.779 10.903 9.19 0 .663.095 1.421.095 2.273 0 .285.19.474.474.474.285 0 .474-.189.474-.474 0-.568 0-1.136-.095-1.61a59.334 59.334 0 005.973 3.126h-.094l.094.758c.474 3.695.664 5.685.854 8.338.094 10.232-.569 36.096-16.781 51.066zm-91.585 14.211a48.68 48.68 0 011.707-8.716c.948-3.127 2.085-5.78 3.318-8.243 3.318-3.884 8.058-6.821 13.083-6.821.948 0 1.896.094 2.939.284 9.007 2.084 12.61 12.601 12.231 19.327-.38 6.253-4.267 12.98-10.05 17.054-4.266 3.032-8.817 4.074-12.515 3.032-3.602-1.042-6.636-3.979-8.627-8.432-1.043-2.369-1.802-4.927-2.086-7.485zm133.205-49.74c-1.991 2.748-5.119 3.506-7.395 3.411-3.602-.189-6.921-2.937-8.248-6.727 1.138.379 2.37.569 3.698.569h.474c5.688-.19 9.954-1.327 13.178-3.032 0 1.232-.095 3.6-1.707 5.779zm-11.661-4.737c-5.878.19-9.955-4.453-11.377-6.442l-.095.095c0-1.801 0-3.316-.095-4.738-.094-2.652-.379-4.737-.758-8.242l2.56.852c2.086 2.464 5.119 3.79 8.438 3.79 5.973 0 10.808-4.453 10.808-10.042 0-5.496-4.835-10.043-10.808-10.043-2.276 0-4.456.663-6.258 1.895-1.801-.379-3.982-.853-6.541-2.369.284-2.084-.095-4.263-.474-6.632-.19-1.326-.474-2.653-.569-4.074-.285-3.031-.474-4.358-.569-5.305-.095-.853-.19-1.421-.285-2.748 7.775-16.201 9.481-36.097 4.551-55.235-6.542-25.201-25.503-40.076-38.871-47.844 11.566-2.369 16.686-3.222 23.702-3.79 10.808-.853 18.013 2.274 20.289 9 18.393 69.92 27.968 113.217 27.589 125.06-.284 15.348-1.991 26.149-21.237 26.812z" fill="#1D1D1B"/><path d="M101.919 429.803c-.285-.379-.948-.473-1.327-.189l-10.43 7.863c-.379.285-.473.948-.189 1.327.19.284.474.379.758.379.19 0 .38-.095.57-.19l10.428-7.863c.379-.284.474-.853.19-1.327zM410.14 351.262c.853 4.548 2.655 13.927-1.327 21.317-2.276 4.263-5.499 5.685-7.111 6.064-.284.094-.379.284-.379.568.095.189.284.379.474.379h.095c1.801-.474 5.214-1.99 7.679-6.537 4.172-7.674 2.275-17.338 1.422-21.98-4.266-22.17-8.912-44.624-13.842-66.604-.095-.284-.284-.379-.569-.379-.284.095-.379.284-.379.568 5.12 21.98 9.765 44.434 13.937 66.604zM281.77 131.176h.189c.759-.19 1.328-.284 2.181-10.327.569-6.253.948-13.927 1.043-21.128.095-1.326 1.611-33.254-3.698-41.591l-.095-.19c-1.232-1.99-2.844-4.453-7.869-4.642-2.749-.095-5.688 3.032-6.257 3.884-8.248 11.275-3.223 26.717 1.138 40.266l.474 1.42c.948 3.032 3.792 10.896 6.541 18.096 5.31 14.117 5.594 14.212 6.353 14.212zm-11.567-34.297c-4.266-13.169-9.007-28.138-1.422-38.655.664-.947 2.939-3.126 4.551-3.126h.095c4.076.19 5.214 1.99 6.352 3.79l.094.189c5.025 7.864 3.414 40.17 3.414 40.55-.19 12.316-1.138 23.401-1.802 27.949-2.56-6.064-9.196-23.875-10.903-29.37l-.379-1.327zM220.903 146.524l.853-.095-.095-.852c-.568-6.916-.853-12.033-1.137-16.58-.19-3.6-.38-6.727-.664-10.043-.095-1.232-2.56-31.17-5.499-38.655-2.37-5.874-6.068-8.81-10.618-8.337-4.551.568-6.163 5.59-7.206 10.422-2.749 13.169 7.3 39.981 7.68 41.023 2.085 6.821 9.765 23.212 16.022 23.212.379-.095.474-.095.664-.095zm-14.695-23.78c-.095-.284-10.24-27.38-7.585-40.076 1.233-5.969 2.844-8.622 5.499-8.906.284 0 .569-.095.853-.095 4.077 0 6.447 3.885 7.774 7.2 2.845 7.201 5.404 37.803 5.404 38.087.285 3.316.475 6.443.664 10.043a335.5 335.5 0 001.043 15.538c-4.266-1.232-11.093-13.549-13.652-21.791zM172.172 156.188c-.095 0-.19 0-.19.095-.284.663-.379 1.326-.474 1.894-.095.664 0 1.232 0 1.8.095 1.232.853 2.274 1.327 3.316.474 1.137 1.043 2.18 1.612 3.222.664 1.042 1.233 2.084 1.896 3.031 0 0 .095.095.19.095s.095-.095.095-.189c-.285-1.137-.664-2.274-.854-3.411-.284-1.137-.569-2.274-.758-3.411-.285-1.137-.19-2.368-.759-3.41-.189-.569-.474-1.043-.853-1.611a12.783 12.783 0 00-1.232-1.421zM165.251 122.27c.853 6.916 2.275 13.738 4.171 20.464 0 .095.19.19.285.19.094 0 .189-.19.189-.284a149.893 149.893 0 01-2.275-20.559c-.19-3.411-.19-6.822-.095-10.327.095-3.411.284-6.822.569-10.232.379-3.411.758-6.822 1.327-10.233.569-3.41 1.043-6.726 1.422-10.137l1.138-10.232c.379-3.41.758-6.916.853-10.422 0-.095-.095-.19-.095-.19-.094-.094-.284 0-.284.095-1.517 3.222-2.655 6.538-3.698 9.854a93.35 93.35 0 00-2.559 10.137 94.794 94.794 0 00-1.422 10.422c-.19 3.505-.38 7.01-.474 10.516-.095 3.506-.095 7.011.094 10.516.095 3.411.38 6.917.854 10.422zM171.698 193.422a142.841 142.841 0 01-6.542-19.517c-1.707-6.632-2.844-13.454-4.267-20.18-.663-3.411-1.327-6.727-1.991-10.138l-1.991-10.232c0-.095-.094-.095-.094-.095-.095 0-.19.095-.19.095-.095 6.916.474 13.927 1.517 20.843s2.939 13.643 4.93 20.275c1.991 6.727 4.551 13.169 7.49 19.517 3.034 6.253 6.447 12.316 10.334 18.096 0 .094.095.094.19 0 .094 0 .094-.095.094-.19-3.792-5.968-6.826-12.127-9.48-18.474zM335.336 101.332c-1.327-4.737-2.844-9.38-4.645-13.927-1.802-4.548-3.793-9-5.973-13.359 0-.095-.19-.095-.19-.095-.095 0-.189.19-.095.285a178.831 178.831 0 014.551 13.737c1.327 4.643 2.465 9.285 3.508 14.022.474 2.369.853 4.737 1.232 7.106.38 2.368.759 4.737 1.233 7.106.474 2.368.948 4.737 1.517 7.105a96.899 96.899 0 001.706 7.106c0 .095.095.095.19.095s.19-.095.19-.19c.379-2.463.474-4.926.474-7.39 0-2.463-.19-4.926-.379-7.39-.569-4.737-1.991-9.474-3.319-14.211zM323.959 49.413c2.465 4.169 4.646 8.527 6.637 12.885 2.086 4.358 3.697 8.906 5.594 13.359 1.801 4.453 3.602 9 5.404 13.453l.094.095c.095 0 .095-.095.095-.095-.853-4.832-2.18-9.474-3.792-14.116-1.612-4.643-3.792-9-5.973-13.359-2.181-4.358-4.646-8.527-7.205-12.695-2.655-4.074-5.404-8.053-8.438-11.938 0 0-.095-.095-.095 0 0 0-.095.095 0 .095 2.655 3.979 5.309 8.053 7.679 12.316zM337.991 150.787c0-.568-.095-1.231-.095-1.8a20.779 20.779 0 00-.569-3.505c0-.095-.095-.095-.095-.19-.094 0-.189 0-.284.095-.379 1.137-.664 2.274-.948 3.316l-1.043 3.221c-.284 1.043-1.043 2.085-1.138 3.222 0 .568 0 1.137.095 1.8a6.98 6.98 0 00.664 1.989c.095.095.189.19.379.095a4.387 4.387 0 001.517-1.421c.379-.474.758-1.042.948-1.611.284-.568.379-1.137.379-1.705 0-.569-.095-1.232 0-1.8.19-.474.19-1.137.19-1.706zM240.433 207.538c-.095 5.4 0 7.011 1.802 11.653.568 1.611 1.706 3.601 3.223 5.59 0 0 0 .095-.095.095-1.043 3.79-3.034 8.811-7.869 7.958-.474-.094-1.043.284-1.137.758-.095.474.284 1.042.758 1.137.569.095 1.043.095 1.517.095 5.12 0 7.3-5.306 8.248-8.337 1.896 2.179 4.267 3.979 6.921 4.642.759.189 1.612.284 2.37.284 2.086 0 3.982-.758 5.879-2.274.379-.284.474-.947.189-1.326-.284-.379-.948-.474-1.327-.19-2.086 1.611-4.267 2.18-6.542 1.611-4.646-1.232-8.817-7.106-10.239-10.895-1.707-4.358-1.802-5.685-1.707-10.99 1.043-.19 1.896-.569 2.37-.853 2.371-1.232 4.456-3.695 5.025-5.874.285-1.137.19-2.084-.379-2.937-1.801-2.748-7.3-1.611-8.343-1.421-3.887.947-6.068 2.463-6.447 4.547-.19 1.232.19 2.558 1.233 3.79 1.042 1.705 2.844 2.653 4.55 2.937zm-3.982-6.063c.19-.853 1.138-2.179 5.025-3.032.948-.19 2.086-.379 3.224-.379 1.422 0 2.749.284 3.128.947.19.379.285.853.095 1.421-.474 1.611-2.18 3.695-4.077 4.643-.568.284-1.422.758-2.465.758-1.517 0-3.128-.853-4.171-2.085-.664-.852-.948-1.61-.759-2.273zM214.74 185.084c0 2.085 1.422 4.453 3.129 4.548 1.991.095 3.982-2.653 3.508-5.116-.379-1.99-2.37-3.885-4.267-3.411-1.516.379-2.37 2.463-2.37 3.979zM267.738 182.905c1.707-.284 2.939-3.221 2.275-5.684-.284-1.232-1.422-3.316-3.318-3.411-1.706-.095-3.223 1.516-3.603 3.032-.758 3.031 2.56 6.537 4.646 6.063zM262.049 200.717l21.996-.758c.284 0 .474-.19.474-.474s-.19-.474-.474-.474l-21.901.758c-.284 0-.474.19-.474.474-.095.284.19.474.379.474zM283.097 205.738l-17.255-1.8c-.285 0-.474.189-.474.379 0 .284.189.474.379.568l17.255 1.8h.095c.284 0 .474-.189.474-.379-.095-.379-.285-.568-.474-.568zM273.237 211.233l-9.955-2.842c-.284-.095-.474.095-.569.284-.095.19.095.474.285.568l9.954 2.843h.095c.19 0 .379-.095.474-.379.095-.19-.094-.379-.284-.474zM211.327 207.064c.095.19.285.379.474.379h.095l13.368-2.937c.285-.094.379-.284.379-.568-.094-.284-.284-.379-.568-.379l-13.368 2.937c-.285.095-.474.284-.38.568zM222.61 209.054c-.095-.284-.38-.379-.569-.284l-7.964 2.937c-.285.094-.379.379-.285.568.095.19.285.284.474.284h.19l7.964-2.937c.095-.094.284-.379.19-.568zM223.463 212.275l-4.836 3.411c-.189.189-.284.474-.094.663.094.095.284.19.379.19.095 0 .189 0 .284-.095l4.835-3.411c.19-.189.285-.474.095-.663-.095-.19-.379-.284-.663-.095zM326.804 333.545a.918.918 0 00-1.328 0 .917.917 0 000 1.327c.569.568 1.043 1.137 1.517 1.705.19.189.474.379.759.379.189 0 .474-.095.569-.19.379-.379.474-.947.094-1.326-.474-.758-1.043-1.326-1.611-1.895zM332.208 340.651c-.285-.474-.854-.569-1.328-.379-.474.284-.568.853-.379 1.326a25.972 25.972 0 011.991 3.979c.19.379.474.569.853.569.095 0 .285 0 .38-.095.474-.189.663-.758.474-1.231-.474-1.516-1.233-2.843-1.991-4.169zM336.189 356.568h.095c.474-.095.854-.569.854-1.043a65.483 65.483 0 00-.759-4.547c-.095-.474-.664-.853-1.138-.663-.474.094-.853.663-.663 1.136.379 1.422.569 2.843.758 4.359-.095.379.379.758.853.758zM336.379 361.021c-.568 0-.948.378-1.043.852-.094.758-.094 1.516-.189 2.274-.095.474.284.947.853 1.042h.095c.474 0 .853-.379.948-.853.095-.852.19-1.61.19-2.463.094-.379-.38-.852-.854-.852zM296.465 514.977l-7.679-3.222c-.285-.094-.474 0-.664.285-.095.284 0 .473.284.663l7.68 3.221h.189a.52.52 0 00.474-.284c.095-.284.001-.569-.284-.663zM300.162 508.25l-9.67-2.653c-.284-.095-.474.095-.569.379-.095.284.095.474.379.569l9.671 2.652h.095c.189 0 .379-.094.474-.379 0-.284-.19-.473-.38-.568zM301.111 499.628l-9.102-.947c-.284 0-.474.19-.474.379 0 .284.19.474.379.474l9.102.947h.095c.284 0 .474-.189.474-.474 0-.094-.19-.284-.474-.379zM302.438 492.144l-11.282-1.895c-.285 0-.475.095-.569.379-.095.284.094.474.379.568l11.282 1.895h.095c.19 0 .474-.189.474-.379.095-.284-.095-.568-.379-.568zM365.39 256.52c.095.095.19.189.38.189.095 0 .189 0 .284-.094.19-.19.285-.474.095-.664-.569-.758-1.233-1.516-1.801-2.179-.19-.189-.474-.189-.664-.094-.19.189-.19.473-.095.663.664.663 1.233 1.421 1.801 2.179zM363.305 342.451c.094 0 .284 0 .379-.095.663-.663 1.327-1.326 1.991-2.084a.459.459 0 000-.663.458.458 0 00-.664 0l-1.991 1.989a.46.46 0 000 .664c0 .189.095.189.285.189zM344.248 354.199c-.853.379-1.706.758-2.655 1.042-.284.095-.379.379-.284.569a.522.522 0 00.474.284h.19c.853-.379 1.801-.663 2.654-1.137.285-.095.38-.379.285-.663-.095-.095-.38-.19-.664-.095zM374.208 270.921a.52.52 0 00.474.284h.189c.285-.095.38-.379.285-.663-.38-.853-.759-1.706-1.233-2.558-.095-.19-.379-.285-.663-.19-.19.095-.285.379-.19.663.284.758.758 1.611 1.138 2.464zM377.147 278.879c.094.189.284.379.474.379h.094c.285-.095.38-.379.285-.569-.284-.947-.569-1.8-.853-2.747-.095-.284-.38-.379-.569-.284-.285.094-.379.379-.285.568.285.853.569 1.8.854 2.653zM370.226 263.436c.094.189.284.189.379.189.095 0 .19 0 .284-.094.19-.095.285-.474.19-.663-.474-.853-1.043-1.611-1.517-2.369-.19-.189-.474-.284-.664-.095-.189.19-.284.474-.094.663.474.758.948 1.611 1.422 2.369zM359.797 250.172c.095.095.189.095.379.095.095 0 .284 0 .379-.095a.457.457 0 000-.663c-.663-.663-1.327-1.326-2.086-1.99a.459.459 0 00-.663 0 .457.457 0 000 .663l1.991 1.99zM379.043 287.122c0 .189.284.379.474.379h.095c.284 0 .474-.285.379-.569a37.302 37.302 0 00-.569-2.842c-.095-.284-.284-.379-.569-.379-.284.095-.379.284-.379.568.19.853.379 1.8.569 2.843zM337.043 233.497c.758.379 1.612.853 2.465 1.327.095 0 .189.095.189.095.19 0 .285-.095.38-.285a.5.5 0 00-.19-.663c-.853-.474-1.706-.947-2.56-1.326-.189-.095-.474 0-.663.189.094.19.189.474.379.663zM380.56 300.67c-.285 0-.474.189-.474.473 0 .948-.095 1.895-.095 2.843 0 .284.189.473.474.473.284 0 .474-.189.474-.473.095-.948.095-1.895.095-2.843 0-.189-.19-.379-.474-.473zM329.363 229.897c.569.19 1.423.569 2.655 1.137h.19a.523.523 0 00.474-.284c.095-.284 0-.474-.285-.663-1.232-.569-2.085-.853-2.654-1.137-.285-.095-.474 0-.569.284-.19.284-.095.569.189.663zM379.801 292.711c.095.853.19 1.8.19 2.843 0 .284.19.473.474.473s.474-.284.474-.473c-.095-.948-.095-1.99-.19-2.843 0-.284-.284-.473-.474-.379-.284-.094-.474.095-.474.379zM356.763 348.041c.095 0 .189 0 .284-.095.759-.568 1.517-1.137 2.276-1.8.189-.19.189-.474.095-.663-.095-.19-.475-.19-.664-.095l-2.276 1.705c-.189.19-.284.474-.094.664.094.189.284.284.379.284zM353.539 244.393c.095.095.19.095.285.095.095 0 .284-.095.379-.19.19-.189.095-.474-.095-.663-.758-.663-1.517-1.232-2.275-1.8-.19-.19-.474-.095-.664.095-.189.189-.095.473.095.663.759.663 1.517 1.231 2.275 1.8zM349.558 352.588c.094 0 .189 0 .189-.094.853-.474 1.707-.948 2.465-1.421.19-.095.285-.474.19-.664-.095-.189-.474-.284-.664-.189-.853.474-1.612.947-2.465 1.421-.189.095-.284.379-.189.663.189.19.284.284.474.284zM344.438 237.761c.758.474 1.517 1.042 2.37 1.61.095.095.19.095.285.095.189 0 .284-.095.379-.189.189-.19.095-.474-.095-.663-.853-.569-1.612-1.043-2.37-1.611-.19-.095-.474-.095-.664.095-.19.189-.19.473.095.663zM360.271 416.161a23.921 23.921 0 01-2.275 1.705c-.19.189-.285.474-.095.663.095.095.189.19.379.19.095 0 .19 0 .284-.095l2.276-1.706c.189-.189.284-.473.095-.663-.19-.189-.474-.189-.664-.094zM331.639 434.54l-.569.285c-.664.379-1.327.663-1.991 1.042-.19.095-.285.379-.19.663.095.189.285.284.379.284.095 0 .19 0 .19-.095.664-.379 1.327-.663 1.991-1.042l.569-.284c.19-.095.284-.379.19-.663 0-.284-.285-.284-.569-.19zM324.244 435.393l-.759.758c-.379.379-.758.853-1.232 1.232a.457.457 0 000 .663c.094.095.189.189.379.189.095 0 .189 0 .284-.094.569-.474.948-.948 1.328-1.327l.663-.663a.457.457 0 000-.663c-.189-.284-.474-.284-.663-.095zM339.129 430.467c-.853.473-1.707.947-2.465 1.421-.19.094-.285.379-.19.663.095.189.285.284.379.284.095 0 .19 0 .19-.095a58.542 58.542 0 012.465-1.421c.19-.094.284-.379.19-.663-.095-.284-.285-.284-.569-.189zM319.883 442.688v-.473c0-.285-.19-.474-.474-.474-.285 0-.474.189-.474.474v.568c0 .663.094 1.326.094 1.99v.379c0 .284.19.473.474.473.285 0 .474-.284.474-.473v-.379c0-.853-.094-1.516-.094-2.085zM317.228 448.941c-.095-.284-.379-.379-.569-.284-.189.095-.474.095-.663.19-.664.189-1.423.379-2.086.663-.285.095-.379.379-.285.663a.523.523 0 00.474.284h.19c.569-.284 1.327-.474 1.991-.663.19-.095.474-.095.664-.189.189-.19.284-.474.284-.664zM313.625 455.479a12.408 12.408 0 01-1.138-1.327c-.189-.189-.474-.284-.663-.095-.19.19-.285.474-.095.664.284.473.758.947 1.232 1.515.19.19.474.474.664.758.095.095.19.19.379.19.095 0 .19 0 .285-.095.189-.189.189-.474.094-.663-.284-.474-.474-.663-.758-.947zM317.228 461.258c-.095-.284-.379-.379-.569-.284-.284.094-.379.378-.284.568.284.947.474 1.705.664 2.653 0 .189.284.379.474.379h.094c.285 0 .474-.285.38-.569-.19-.852-.38-1.705-.759-2.747zM318.84 469.785c0-.285-.284-.474-.569-.379-.284 0-.474.284-.379.568.189.853.379 1.8.569 2.842 0 .19.284.379.474.379h.095c.284-.094.379-.284.379-.568-.285-1.137-.474-1.99-.569-2.842zM346.334 425.919l-2.37 1.516c-.19.189-.285.473-.095.663.095.095.284.189.379.189.095 0 .19 0 .285-.094l2.37-1.516c.189-.19.284-.474.095-.663-.19-.19-.474-.19-.664-.095zM375.914 377.979c-.284 0-.474.19-.474.474-.095.947-.095 1.895-.19 2.842 0 .285.19.474.475.474.284 0 .474-.189.474-.474.094-.947.094-1.895.189-2.842 0-.189-.189-.474-.474-.474zM376.199 369.453c-.285 0-.474.189-.474.473 0 .948 0 1.895-.095 2.843 0 .284.19.473.474.473s.474-.189.474-.473c0-.948 0-1.895.095-2.843 0-.284-.285-.473-.474-.473zM375.156 386.506c-.285 0-.474.19-.569.379-.095.947-.285 1.895-.379 2.842 0 .285.094.474.379.569h.095c.189 0 .474-.19.474-.379.094-.948.284-1.895.379-2.842.095-.285-.095-.569-.379-.569zM353.445 421.182c-.759.474-1.517 1.042-2.37 1.61-.19.19-.285.474-.095.664.095.094.284.189.379.189.095 0 .19 0 .284-.095.854-.568 1.612-1.042 2.371-1.61.189-.19.284-.474.094-.663-.189-.19-.474-.19-.663-.095zM366.339 410.381a38.44 38.44 0 01-1.896 2.085.457.457 0 000 .663c.094.094.189.094.379.094.189 0 .284 0 .379-.094.664-.663 1.327-1.421 1.991-2.085.19-.189.19-.473-.095-.663-.284-.189-.569-.189-.758 0zM373.828 394.938c-.284 0-.474.095-.568.379-.19.948-.474 1.895-.664 2.748-.095.284.095.473.379.568h.095c.19 0 .379-.095.474-.379.19-.852.474-1.8.664-2.747 0-.285-.095-.569-.38-.569zM371.458 403.086c-.284-.095-.474 0-.663.284-.38.948-.759 1.8-1.233 2.558-.095.19 0 .474.19.664.095 0 .189.094.189.094.19 0 .285-.095.38-.284.474-.758.853-1.705 1.232-2.653.284-.284.19-.568-.095-.663zM231.522 298.87c.948-.19 1.896-.285 2.844-.379.284 0 .474-.285.474-.474 0-.19-.19-.474-.474-.474-.948.095-1.896.19-2.844.379-.285.095-.38.284-.38.569-.094.189.095.379.38.379zM215.594 312.512c-.285-.094-.474.095-.569.285-.19.473-.284.852-.284 1.042-.095.284.094.474.284.568h.095c.189 0 .379-.094.474-.379.095-.284.189-.568.284-1.042.095-.189-.095-.379-.284-.474zM223.652 302.186c.095 0 .19 0 .285-.095.284-.19.569-.379.948-.569.474-.284.948-.568 1.517-.852.189-.095.284-.379.189-.663-.094-.19-.379-.285-.663-.19-.569.284-1.043.569-1.517.853-.285.189-.664.379-.948.663-.19.189-.285.474-.095.663 0 .095.19.19.284.19zM219.102 305.217c-.569.758-1.138 1.516-1.707 2.369a.498.498 0 00.19.663c.095.095.189.095.284.095.19 0 .285-.095.379-.19.474-.758 1.043-1.516 1.612-2.274.19-.189.095-.473-.095-.663a.459.459 0 00-.663 0zM259.016 422.034c-.948-.189-1.896-.473-2.75-.663-.284-.094-.474.095-.568.379-.095.284.094.474.379.569.948.189 1.801.473 2.749.663h.095c.19 0 .379-.19.474-.379 0-.19-.19-.474-.379-.569zM267.264 424.308c-.948-.284-1.801-.568-2.75-.758-.284-.094-.474.095-.568.285-.095.189.094.473.284.568.853.284 1.801.474 2.749.758h.095c.19 0 .38-.095.474-.379.095-.095-.094-.379-.284-.474zM275.418 426.961c-.948-.284-1.802-.663-2.655-.947-.284-.095-.474.094-.569.284-.095.284.095.474.285.568.853.285 1.801.569 2.654.948h.19a.523.523 0 00.474-.284c0-.285-.19-.474-.379-.569zM199.855 419.287c-.568.189-1.137.474-1.706.663-.285.095-.569.284-.948.379-.285.095-.379.379-.285.663.095.19.285.285.474.285h.19c.284-.095.569-.285.853-.379.569-.285 1.138-.474 1.707-.664.284-.094.379-.379.284-.568-.094-.19-.379-.474-.569-.379zM191.986 422.887c-.853.474-1.611.948-2.465 1.421-.189.095-.284.474-.189.663.094.19.284.19.379.19.095 0 .189 0 .284-.095.759-.473 1.612-.947 2.465-1.421.19-.095.285-.379.19-.663-.095-.095-.379-.19-.664-.095zM208.104 417.013l-2.844.569c-.285.094-.38.284-.38.568.095.19.285.379.474.379h.095c.948-.189 1.802-.379 2.75-.568.284 0 .474-.285.379-.569 0-.284-.19-.379-.474-.379zM184.876 427.624c-.759.569-1.517 1.232-2.276 1.8-.189.19-.189.474-.094.664.094.094.189.189.379.189.095 0 .189 0 .284-.095.664-.568 1.422-1.137 2.181-1.8.19-.189.284-.473.095-.663-.095-.189-.38-.189-.569-.095zM254.37 316.018l.853 40.834 33.278-.569-.379-43.581-33.752 3.316zm16.781 31.075c-1.517-1.421-3.034-2.842-4.551-4.358l-7.11 13.075-3.319.094-.189-9.853c2.749-5.4 5.499-10.895 8.248-16.295 1.233 1.705 2.465 3.315 3.698 5.021 4.645-6.822 9.386-13.643 14.031-20.464l5.31-.569.094 8.148c-5.499 8.432-10.808 16.769-16.212 25.201zM258.921 300.575h.095c1.043 0 1.991-.474 2.749-1.232.664-.758 1.043-1.8 1.043-2.842s-.474-2.084-1.233-2.748a3.8 3.8 0 00-2.749-1.136c-2.181.094-3.792 1.894-3.792 4.168 0 1.042.474 2.085 1.232 2.748.759.663 1.707 1.042 2.655 1.042zM259.205 302.944c-2.18.094-3.792 1.894-3.792 4.168 0 1.042.474 2.084 1.233 2.748.758.663 1.706 1.137 2.654 1.137h.095c2.181-.095 3.792-1.895 3.792-4.169-.094-2.179-1.896-3.979-3.982-3.884zM175.016 368.505c4.266-2.274 6.352-7.106 5.025-11.369-1.043-3.411-4.172-5.969-7.964-6.537l-1.233-.19 3.034 18.759 1.138-.663zm3.223-10.895c.948 3.032-.284 6.442-2.939 8.432l-2.18-13.359c2.465.758 4.361 2.653 5.119 4.927zM188.194 366.989a8.77 8.77 0 003.982-.947l-.758-1.706c-2.56 1.232-5.499.853-6.921-.757-.759-.853-1.043-1.895-1.043-2.937l11.282-2.18-.758-1.136c-1.991-3.127-5.12-4.927-7.775-4.264-1.896.474-3.508 2.274-4.266 4.737-.853 2.653-.379 5.401 1.232 7.106 1.138 1.421 3.034 2.084 5.025 2.084zm-4.456-8.621c.569-1.8 1.707-3.127 2.939-3.506.19-.094.474-.094.664-.094 1.327 0 2.939.852 4.172 2.368l-7.869 1.516c0-.095 0-.19.094-.284zM205.923 352.494l-1.801-.379-2.56 12.885-5.973-11.275-1.706.853 8.438 16.011 3.602-18.095z" fill="#1D1D1B"/><path d="M161.458 369.642c.284 3.127.569 6.632 4.646 6.632h.663l-.189-1.895c-2.655.19-3.034-1.042-3.319-4.832-.284-2.937-.568-6.916-4.076-9.19 3.792-2.652 2.939-7.105 2.37-10.516-.285-1.705-.664-3.506-.095-4.169.095-.094.284-.379 1.138-.473l-.19-1.895c-1.138.094-1.991.473-2.465 1.137-1.043 1.326-.664 3.41-.284 5.684.758 4.358 1.043 7.58-2.939 9.285l-2.086.947 2.18.853c4.077 1.611 4.362 5.116 4.646 8.432zM211.707 350.125c.284 2.937.568 6.916 4.076 9.19-3.792 2.653-2.939 7.106-2.37 10.516.285 1.706.664 3.506.095 4.169-.095.095-.284.379-1.138.474l.19 1.895c1.138-.095 1.991-.474 2.465-1.137 1.043-1.327.664-3.411.284-5.685-.758-4.358-1.043-7.579 2.939-9.284l2.086-.948-2.18-.853c-3.982-1.515-4.267-5.021-4.551-8.432-.285-3.316-.569-7.011-5.404-6.537l.189 1.895c2.655-.284 2.939.947 3.319 4.737z" fill="#E64E6C"/></g><g style="animation:cup infinite 10s linear"><path d="M455.175 215.737c-2.556-2.556-5.301-3.881-6.91-4.543 1.041-3.313 2.083-6.531 3.124-9.844-5.679-4.07-11.358-8.046-17.132-12.116-4.354-2.839-13.157-7.477-23.758-6.909-3.502.189-8.897.568-12.4 4.448-1.609 1.704-2.177 3.503-3.029 5.774-1.893 5.49-4.448 10.696-5.963 16.28-1.514 5.68-4.638 14.766-11.358 29.911a25.558 25.558 0 003.124 9.37c.473.852 2.65 4.544 7.288 8.235 9.844 7.856 21.486 8.33 24.893 8.33 3.408.094 8.709-.19 14.956-2.177 2.555-4.26 5.016-8.614 7.572-12.873 1.136.189 12.494 2.366 20.161-5.395 3.407-3.408 4.638-7.289 5.111-9.466 1.609-7.099-.946-14.387-5.679-19.025zm-5.869 14.955c-.378 2.461-1.893 4.26-2.555 5.017-.757.852-2.272 2.65-4.922 3.123-1.041.19-1.893.19-2.556.095 1.988-5.679 3.881-11.358 5.869-17.037.284.189 4.922 3.88 4.164 8.802z" fill="#fff"/><path d="M449.023 205.42a23.38 23.38 0 002.555-5.679c.852-2.745.379-3.029 1.136-4.733 1.515-3.502 3.976-3.123 5.301-6.342 1.041-2.555.662-5.3.568-5.773-.284-2.177-1.041-3.029-.663-4.544.095-.378.568-1.514 2.745-2.934 3.029-1.988 4.449-1.23 7.478-2.556.757-.378 4.543-2.177 6.152-6.057.189-.379 1.704-4.07.095-5.679-.852-.852-2.083-.758-3.408-.663-3.218.189-4.543 1.514-7.383 2.461-3.029.946-3.218-.095-6.72.568-1.514.284-6.531 1.136-10.222 4.827-1.326 1.325-2.651 3.502-5.206 7.762-1.231 2.082-1.893 3.312-3.408 3.786-1.23.378-1.893-.19-5.016-.379-2.556-.189-3.881-.284-4.449.473-.757.947.568 2.272.946 5.017.095.473.758 5.206-1.703 7.383-2.935 2.745-9.371.473-10.223.189-3.029-1.136-3.881-2.461-6.058-2.082-1.609.284-3.312 1.514-3.975 3.313-.757 1.798-.379 3.88.568 5.206.852 1.23 1.798 1.23 1.893 1.987.095.758-.473 1.893-3.692 3.692 5.585 2.839 13.914 6.058 23.569 6.72 8.613.568 12.683-1.23 14.955-2.556 2.082-1.23 3.408-2.46 4.165-3.407zM421.479 172.481c.379-.473 3.218-3.502 2.177-6.72-.473-1.61-1.704-2.461-2.65-3.219-2.745-2.082-5.869-2.271-7.478-2.366-2.934-.189-3.123.568-4.922.095-2.555-.758-2.65-2.272-5.3-3.124-.758-.284-3.597-1.136-5.585.473-1.325 1.042-2.177 2.84-1.704 4.544.379 1.609 1.799 2.366 3.597 3.313 3.502 1.798 7.383 2.461 9.939 2.839 2.461.379 3.596.379 4.543 1.42.947 1.136.663 2.272 1.988 3.502.284.284 1.325 1.136 2.555 1.136 1.325-.189 2.177-1.136 2.84-1.893zM452.241 147.019c-2.083 1.041-1.893 4.165-1.893 4.544 0 .568.189 3.218 1.987 3.88 1.704.663 3.597-.946 3.787-1.23 1.419-1.325 2.461-3.692 1.419-5.49-.662-1.136-1.893-1.609-2.271-1.704-.379-.094-1.799-.568-3.029 0zM472.592 144.748c-.19.568-.947 2.271-.19 3.691.473.947 1.42 1.325 1.609 1.42 2.272.946 5.49-.947 7.194-2.65 2.65-2.651 4.638-7.573 2.65-11.643-.189-.378-1.893-3.691-5.3-4.164-2.083-.284-4.828.284-5.774 2.177-.568 1.135-.189 2.461.094 3.312.568 2.272 1.894 2.651 1.61 4.071-.095.283-.474 1.041-1.231 2.555-.568 1.041-.568.947-.662 1.231zM471.929 184.596c-1.609-1.703-.758-4.543-.568-5.111.284-1.041.757-1.798.946-1.988 1.325-1.987 3.881-3.312 6.342-3.312 2.65 0 2.84 1.609 6.247 1.987 1.988.284 3.502-.094 5.679-.568 4.449-.946 5.017-2.271 7.573-1.987.473.094 3.312.378 4.637 2.555 1.799 2.84-.473 6.531-.662 6.815-2.177 3.408-7.099 5.112-10.601 3.976-1.799-.568-2.272-1.704-6.058-3.219-2.366-.946-3.029-.946-3.407-.851-1.894.189-2.177 1.514-5.112 2.555-1.609.568-2.461.474-3.029.379-.284-.284-1.23-.473-1.987-1.231z" fill="#F7D7DE"/><path d="M387.688 234.857c-.284-.095-.473 0-.568.284l-1.798 4.827c-.095.284 0 .474.284.568h.189a.519.519 0 00.473-.284l1.799-4.827c0-.189-.095-.473-.379-.568zM396.869 205.231c-.284-.095-.474.094-.568.284l-7.194 22.054c-.094.284.095.473.284.568h.189c.19 0 .379-.095.474-.284l7.193-22.054c0-.19-.189-.474-.378-.568z" fill="#1D1D1B"/><path d="M464.64 175.226c3.503-1.041 7.573-2.272 9.844-6.153 1.893-3.123 2.367-8.045.19-9.654-1.326-.947-2.745-.379-4.828.473-1.798.757-4.164 1.704-7.667 2.177-1.798.284-2.555.189-3.218.095-.757-.095-1.42-.095-2.839.094-8.424 1.609-13.63 9.276-14.198 10.128-1.041 1.609-1.231 2.934-1.325 3.881-.095 1.136-.19 1.514-1.42 2.082-1.893.758-4.07.379-6.058.095-2.082-.379-3.975-.663-5.206.473-1.42 1.325-.662 3.218 0 5.112.095.189.189.473.284.662-1.988-.946-4.165-1.609-6.247-2.082-11.832-2.461-21.108-1.136-24.894 3.597a.967.967 0 00-.473.567l-.568.852-19.025 51.302c-1.136 3.881 1.798 8.235 4.827 12.4 5.301 7.193 13.062 9.843 17.795 11.453 5.868 1.987 12.494 3.028 18.079 3.028 5.963 0 10.695-1.135 12.021-3.407l6.152-11.737c3.029.663 9.276 1.42 15.618-2.272.378-.189 9.56-5.679 10.506-16.564.757-8.613-4.165-17.037-12.21-21.391l2.65-9.655c.095-.379 0-.663-.284-.852.19-1.136.474-2.271.947-3.313.946-2.366 2.271-3.786 3.597-5.111 1.325-1.42 2.65-2.745 3.123-5.111.473-2.272-.189-3.786-.757-4.922-.473-.947-.757-1.609-.473-2.65.568-1.893 3.123-2.745 6.057-3.597zm-43.067 9.37a29.288 29.288 0 017.289 2.651c.284 1.703-.095 3.313-1.988 5.016-1.136 1.041-3.029 1.041-4.543.947-2.556-.189-4.165-1.231-5.585-2.177-1.514-1.041-2.934-1.988-5.016-1.609-3.124.662-5.869 4.07-5.585 7.004.189 1.514 1.136 2.461 1.893 3.313.663.662 1.041 1.041.947 1.514 0 .284-.379 1.136-2.935 2.083-1.703-1.231-3.123-2.745-4.354-4.449-1.419-1.988-3.407-6.72-3.312-11.453 3.312-4.07 12.21-5.301 23.189-2.84zm6.437 76.953c-1.609 2.84-15.334 3.786-27.828-.473-4.449-1.515-11.926-4.07-16.848-10.791-2.745-3.786-5.395-7.666-4.544-10.601l18.079-48.462c.663 4.07 2.366 7.478 3.408 8.992 6.436 9.371 20.445 12.116 30.951 12.116 4.259 0 7.951-.474 10.223-1.136 1.609-.473 4.637-1.325 7.098-3.313l-.946 3.407c-1.136 0-2.272.379-3.218.947-.947.568-1.515 1.325-1.704 2.082-.473 2.177.189 4.449.473 4.922l.852 1.136-6.058 18.836c-1.419-.379-2.65-.284-3.596.284-1.231.663-2.083 1.798-2.556 3.597-.473 1.514-.189 3.123.662 4.448.568.947 1.42 1.704 2.083 2.083l-6.531 11.926zm17.227-39.091c2.745 2.366 4.07 5.868 3.218 9.086-.947 3.881-4.544 5.679-4.733 5.679-1.325.568-2.555.758-3.597.852l5.112-15.617zm14.765 9.37c-.851 9.939-9.465 14.955-9.559 15.05-6.248 3.597-12.495 2.556-14.861 1.893l-.473-.095c-.852-.473-3.313-2.461-2.461-5.49.378-1.514 1.136-2.555 2.082-3.028 1.325-.663 2.84-.284 3.976.189.284.095.473 0 .567-.284h.758c1.325 0 2.839-.189 4.543-.947.189-.094 4.638-2.177 5.774-7.004 1.041-4.259-.852-8.897-4.733-11.642 0-.095-.094-.095-.189-.189a4.962 4.962 0 01-1.515-1.61c-.189-.284-.757-2.271-.283-4.164.094-.568.567-1.136 1.325-1.515 1.041-.662 2.366-.946 3.502-.757 7.572 3.691 12.21 11.642 11.547 19.593zm-2.744-49.409c.473 1.042.946 2.083.567 3.692-.378 1.798-1.419 2.839-2.65 4.165-1.325 1.419-2.839 2.934-3.975 5.679-.757 1.798-1.136 3.786-1.231 5.774v.189c-.189.568-.378 1.136-.662 1.704-1.988 3.691-6.342 4.922-8.519 5.489-6.058 1.704-22.433 1.894-32.939-4.543 1.893-.852 2.839-1.893 3.029-3.123.189-1.326-.758-2.272-1.515-3.124-.662-.662-1.23-1.325-1.325-2.177-.189-1.798 1.704-4.449 4.07-4.922 1.231-.284 2.177.284 3.597 1.231 1.514 1.041 3.502 2.271 6.531 2.461 1.893.094 4.259.094 5.963-1.42 3.976-3.597 2.556-7.572 1.609-10.128-.568-1.609-.946-2.65-.473-3.029.568-.473 1.988-.284 3.502 0 2.082.379 4.733.852 7.099-.189 2.177-.947 2.366-2.272 2.556-3.597.094-.947.189-1.798 1.041-3.029 1.893-2.84 6.815-8.045 13.062-9.276 1.136-.189 1.609-.189 2.272-.095.757.095 1.703.19 3.691-.094 3.692-.473 6.247-1.515 8.046-2.367 1.419-.567 2.461-1.041 2.934-.757.946.663 1.041 4.26-.757 7.099-1.894 3.218-5.396 4.26-8.803 5.301-3.313 1.041-6.437 1.987-7.383 4.922-.379 1.893.189 3.029.663 4.164zM406.05 168.6c1.136.189 1.988.189 2.745.189 1.231 0 1.988 0 3.029.568 1.325.758 1.893 1.799 2.461 2.84.568 1.136 1.231 2.272 2.65 2.65.284.095.663.095.947.095 1.041 0 2.272-.379 3.502-1.231 1.988-1.325 3.313-3.407 3.597-5.49.473-4.543-4.354-8.234-8.046-9.086-1.893-.473-3.218-.095-4.448.189-1.136.284-2.177.568-3.692 0-1.42-.473-2.271-1.23-3.029-1.988-.946-.851-1.893-1.798-3.596-1.987-1.894-.19-4.071.473-5.68 1.798-1.041.852-1.703 1.988-1.798 3.029-.473 3.691 5.868 7.667 11.358 8.424zm-8.518-9.938c1.041-.852 2.555-1.42 3.786-1.42h.473c1.136.094 1.704.662 2.556 1.514.851.852 1.893 1.799 3.786 2.461 2.082.663 3.502.284 4.732 0 1.041-.284 2.083-.473 3.597-.189 3.029.662 7.004 3.691 6.626 7.004-.19 1.515-1.231 3.029-2.745 4.07-1.041.663-2.177 1.041-2.934.852-.663-.189-.947-.662-1.42-1.704-.568-1.135-1.325-2.555-3.124-3.596-1.514-.852-2.65-.852-3.975-.852-.663 0-1.515 0-2.461-.19-5.111-.757-10.128-4.259-9.939-6.341-.094-.379.379-1.042 1.042-1.609zM453.755 156.769c1.799 0 3.313-1.799 4.165-3.408.852-1.704 1.42-4.165.189-5.774-.757-1.041-2.271-1.704-3.88-1.798-1.61 0-3.124.473-4.071 1.514-.946 1.136-.946 2.461-.946 3.124 0 2.839 1.988 6.342 4.543 6.342zm-2.177-8.235c.473-.568 1.325-.852 2.367-.852h.189c1.041 0 1.988.473 2.461.946.568.758.473 2.272-.379 3.787-.757 1.514-1.893 2.366-2.461 2.366-1.041 0-2.65-2.272-2.65-4.449 0-.378 0-1.23.473-1.798zM472.023 143.896c-.662.757-1.42 1.704-1.23 3.218.094 1.609 1.136 3.218 2.555 3.881.568.284 1.042.378 1.704.378 2.934 0 6.342-2.934 7.951-5.584 2.461-3.976 3.597-11.264-.852-14.198-2.177-1.515-5.111-1.325-7.004-.757-1.799.568-3.218 1.609-3.692 2.839-.662 1.515.095 2.935.852 4.354.757 1.325 1.42 2.651.947 4.165-.379.663-.852 1.136-1.231 1.704zm1.799-6.91c-.663-1.23-1.042-1.988-.758-2.745.284-.662 1.231-1.325 2.461-1.704 1.893-.567 4.07-.378 5.396.568 3.218 2.177 2.271 8.33.284 11.643-1.704 2.745-5.301 5.395-7.194 4.448-.757-.378-1.325-1.325-1.42-2.271-.095-.758.284-1.136.852-1.893.473-.568 1.136-1.326 1.42-2.461.757-2.177-.284-4.07-1.041-5.585z" fill="#1D1D1B"/><path d="M498.621 172.481c-2.556-.663-4.449.284-6.247 1.136-1.609.852-3.408 1.703-5.963 1.703-2.272 0-3.692-.662-5.017-1.325-1.514-.757-2.934-1.419-5.206-.757-2.366.757-4.638 2.84-5.774 5.301-.852 1.798-.946 3.502-.378 4.922.757 1.703 2.65 3.028 4.732 3.218 2.083.284 3.408-.757 4.638-1.609.947-.663 1.893-1.325 3.124-1.515 1.609-.189 2.555.568 3.881 1.515 1.23.946 2.745 2.082 5.016 2.461.568.094 1.136.094 1.704.094 3.123 0 6.531-1.23 8.992-3.313 1.798-1.514 2.84-3.312 2.84-5.111-.095-3.123-3.313-5.963-6.342-6.72zm2.177 10.506c-2.461 2.083-6.247 3.313-9.087 2.745-1.798-.284-3.029-1.23-4.165-2.082-1.23-.947-2.555-1.893-4.543-1.893h-.757c-1.799.189-2.934 1.041-3.976 1.798-1.135.757-1.987 1.42-3.312 1.231-1.42-.19-2.745-1.041-3.219-2.083-.378-.852-.284-2.082.284-3.407.947-1.988 2.84-3.692 4.638-4.26 1.515-.473 2.367 0 3.786.663 1.42.663 3.124 1.515 5.774 1.515 3.124 0 5.112-.947 6.91-1.894 1.704-.851 3.029-1.514 4.922-1.041 2.556.663 4.827 3.029 4.827 5.017.095 1.136-.662 2.461-2.082 3.691zM445.899 183.461c-.473-.474-.946-.663-1.325-.568-1.325.094-1.704 1.798-2.272 3.691-.568 1.988-1.136 4.26-2.745 4.827-.852.284-1.609 0-2.366-.378-.852-.379-1.798-.757-2.84-.189-1.325.757-1.419 2.46-1.514 4.164-.095 1.609-.189 3.313-1.325 4.26-1.041.851-2.934.662-6.815.284a64.108 64.108 0 01-2.461-.284c-1.609-.19-2.461-.379-3.124.378-1.041 1.041-.757 3.124.663 6.531a.52.52 0 00.473.284h.189c.284-.094.379-.378.284-.662-1.609-3.881-1.23-5.112-.851-5.49.284-.379.851-.284 2.366-.095a62.16 62.16 0 002.461.284c4.165.379 6.152.568 7.572-.473 1.42-1.136 1.515-3.124 1.609-4.922.095-1.515.189-2.84 1.041-3.408.568-.284 1.136-.094 1.988.284.852.379 1.893.852 3.124.379 2.082-.757 2.745-3.218 3.312-5.49.379-1.42.852-2.934 1.42-3.029.663 0 3.218 3.218 3.313 4.733 0 1.041-2.082 3.502-3.881 5.584-2.177 2.556-4.259 4.922-4.543 6.721-.189 1.325.189 2.745 1.041 4.164.095.19.379.284.663.19.189-.095.284-.379.189-.663-.757-1.23-1.041-2.461-.852-3.502.189-1.42 2.366-3.975 4.354-6.247 2.272-2.556 4.165-4.827 4.07-6.247-.284-1.42-1.987-3.976-3.218-5.111zM468.237 166.423a.456.456 0 000-.662.456.456 0 00-.662 0c-2.84 3.218-5.963 5.3-9.182 6.152-1.703.473-3.218.473-4.638.568-2.177.095-3.975.095-4.827 1.988-.852 1.798-.568 4.543 1.041 8.518a.52.52 0 00.474.284h.189c.284-.094.378-.378.284-.568-1.42-3.596-1.799-6.247-1.041-7.761.568-1.231 1.798-1.325 3.975-1.42 1.325 0 3.029-.095 4.827-.568 3.313-.946 6.626-3.123 9.56-6.531z" fill="#1D1D1B"/></g><g style="animation:time infinite 5s linear alternate"><path d="M92.591 233.996c.095.663 2.935 1.136 8.708 1.42 14.861-2.082 29.627-4.164 44.487-6.247 1.704-.852 3.313-1.798 5.017-2.65l1.704-5.111c-4.544-16.565-9.182-33.129-13.725-49.693-7.099-.757-14.198-1.514-21.297-2.366l-44.013 16.185c-1.136.474-2.367.852-3.503 1.325-.189.947-.284 1.894-.473 2.84 4.165 14.009 8.235 28.112 12.4 42.12 1.135.663 2.366 1.42 3.502 2.083 1.04-.284 1.987-.473 3.029-.757-4.165-14.104-8.235-28.112-12.4-42.215 15.713-5.869 31.425-11.643 47.043-17.511.851 2.082 1.703 4.259 2.555 6.341 3.313 13.82 6.626 27.544 9.939 41.364-.19 1.23-.284 2.461-.474 3.691l-5.111 1.988c-25.083 3.313-37.577 5.774-37.388 7.193z" fill="#EFEFEF"/><path d="M76.69 191.213c15.428-5.679 30.951-11.358 46.38-17.037.757 1.136 1.42 2.177 2.177 3.313 3.407 14.671 6.72 29.437 10.128 44.108-.095.852-.284 1.798-.379 2.65-.379.284-.757.474-1.136.757-1.136.379-2.271.758-3.407 1.042-13.914 2.177-27.734 4.259-41.648 6.436-4.07-13.725-8.14-27.449-12.115-41.269z" fill="#fff"/><path d="M100.258 211.848c.095 0 .189 0 .189-.095l8.519-4.922s.095 0 .095-.094c0 0 0-.095.094-.095v-.095l3.313-15.807c.095-.284-.095-.473-.379-.568-.283-.094-.473.095-.567.379l-3.313 15.618-8.33 4.827c-.189.095-.284.379-.189.662.284.095.379.19.568.19z" fill="#1D1D1B"/><path d="M153.169 221.124l-13.819-50.261-.663-.094c-3.218-.379-6.626-.663-10.033-1.042-3.313-.378-6.626-.662-9.655-1.041h-.284c-1.135-.095-2.366.189-3.596.757-17.89 6.342-31.993 11.359-38.808 13.82l-3.502 1.23c-1.041.284-3.502 1.231-4.26 3.408-.378 1.23-.189 2.555.474 4.07 7.004 22.716 10.6 35.021 10.98 37.577.189 1.514.757 2.745 1.703 3.597.947.852 2.177 1.325 3.692 1.419h.094c.757.095 1.42.095 2.177.19h.095c1.798.189 3.691.378 5.584.568 2.745.284 5.585.662 7.951.852h.095l45.623-6.532c1.041-.189 2.934-.851 4.354-2.744 2.082-2.177 1.893-5.017 1.798-5.774zM83.031 231.82c-.946-.852-1.04-2.083-1.136-2.556-.378-2.745-3.88-14.766-11.074-37.956l-.095-.189c-.567-1.041-.662-1.893-.378-2.65.473-1.326 2.272-1.988 3.029-2.272l3.502-1.231c6.815-2.461 20.918-7.477 38.902-13.819 1.041-.473 1.893-.662 2.745-.568h.095c.284 0 .568.095.757.19 1.23.378 2.082 1.325 2.65 2.177l-47.42 17.321L87.1 232.482c-.568.095-1.04.095-1.609.189-1.04 0-1.893-.378-2.46-.851zm51.775-10.507c.19.757.284 1.42 0 1.988-.568 1.42-2.461 2.082-3.218 2.271-3.407 1.136-19.972 3.692-42.594 6.626L76.88 191.403l46.19-16.754c2.177 4.733 6.721 22.812 11.737 46.664zm15.239 4.638c-1.135 1.42-2.555 1.893-3.218 2.082l-45.338 6.342a140.364 140.364 0 01-7.857-.852h-.094c20.445-2.745 35.305-5.111 38.618-6.152.947-.284 3.597-1.136 4.449-3.408.378-.946.378-2.082 0-3.123-5.112-24.705-9.75-42.878-12.021-47.327-.189-.284-.379-.662-.568-1.041l-.095-.094c-.189-.379-.473-.758-.852-1.231l5.396.568c3.218.284 6.341.663 9.37.947l13.441 48.84c.095.568.189 2.651-1.231 4.449z" fill="#1D1D1B"/><path d="M100.92 188.658a.522.522 0 00.474.284h.189c.284-.095.379-.379.284-.663l-.947-2.461c-.094-.284-.378-.378-.662-.284-.284.095-.379.379-.284.663l.946 2.461zM126.193 202.193h.095l1.987-.473c.284-.095.379-.284.379-.568-.095-.284-.284-.379-.568-.379l-1.988.474c-.284.094-.378.284-.378.568.094.284.284.378.473.378zM85.776 211.753c.095.189.284.379.473.379h.095l3.597-.852c.284-.095.378-.284.378-.568s-.284-.379-.568-.379l-3.596.852c-.284.095-.474.379-.379.568zM112.374 225.099l.473 1.893c.094.19.284.379.473.379h.095c.284-.095.378-.284.378-.568l-.473-1.893c-.095-.284-.284-.379-.568-.379-.284.095-.378.284-.378.568zM90.603 194.716c.095.094.19.094.284.094.19 0 .284-.094.379-.189.19-.189.094-.473-.095-.663l-1.136-.757c-.189-.189-.473-.094-.662.095-.19.189-.095.473.094.662l1.136.758zM87.007 202.572l1.04.094h.095c.19 0 .474-.189.474-.378 0-.284-.19-.473-.379-.568l-1.041-.095c-.284 0-.473.19-.568.379 0 .284.19.473.379.568zM114.456 185.724h.094c.19 0 .379-.095.474-.379l.284-.757c.094-.284-.095-.473-.284-.568-.284-.095-.474.095-.568.284l-.284.757c-.095.284 0 .568.284.663zM122.786 193.864h.189l.852-.379c.284-.094.379-.378.189-.662-.094-.284-.378-.379-.662-.19l-.852.379c-.189 0-.284.284-.189.568.094.095.283.284.473.284zM124.489 212.605l1.136.473h.189a.519.519 0 00.473-.284c.095-.284 0-.473-.284-.662l-1.135-.473c-.284-.095-.474 0-.663.283 0 .284.095.568.284.663zM120.041 221.881c.094.095.189.095.284.095.094 0 .284-.095.378-.19.19-.189.095-.473-.094-.662l-1.041-.757c-.19-.19-.474-.095-.663.094-.189.19-.095.473.095.663l1.041.757zM102.624 225.667c-.189-.095-.473 0-.662.189l-.284.474c-.095.189 0 .473.189.662.095 0 .189.095.189.095.19 0 .284-.095.379-.284l.284-.473c.284-.19.189-.568-.095-.663zM93.064 220.934c.095 0 .19 0 .284-.094l.568-.473c.19-.19.19-.474.095-.663-.19-.189-.473-.189-.663-.095l-.568.474c-.189.189-.189.473-.094.662.094.095.284.189.378.189z" fill="#1D1D1B"/></g></svg>