<svg width="378" height="56" fill="none" xmlns="http://www.w3.org/2000/svg"><path d="M13.579 46.253c-4.027 0-7.048-1.391-9.313-4.3C2.001 39.044.994 34.997.994 29.812c0-5.186 1.133-9.36 3.398-12.268 2.265-2.909 5.411-4.427 9.313-4.427 4.153 0 7.299 1.518 9.564 4.68h.378c-.378-2.277-.504-4.047-.504-5.438V.723h6.796v45.024h-5.285l-1.133-4.173h-.378c-2.139 3.161-5.285 4.679-9.564 4.679zm1.888-5.438c2.768 0 4.782-.76 6.04-2.403 1.259-1.518 1.888-4.174 2.014-7.588v-1.012c0-4.047-.63-6.83-2.014-8.6-1.258-1.644-3.398-2.53-6.166-2.53-2.391 0-4.153 1.012-5.538 2.91-1.258 1.896-1.887 4.678-1.887 8.22 0 3.667.629 6.323 1.887 8.22 1.259 1.77 3.147 2.783 5.664 2.783zM50.579 46.253c-4.909 0-8.81-1.391-11.579-4.3-2.768-2.909-4.153-6.956-4.153-12.015 0-5.185 1.259-9.359 3.902-12.267 2.643-3.036 6.166-4.427 10.697-4.427 4.153 0 7.55 1.265 9.942 3.794 2.391 2.53 3.65 6.07 3.65 10.624v3.667H41.769c.126 3.162.881 5.439 2.517 7.21 1.51 1.643 3.776 2.529 6.67 2.529 1.888 0 3.65-.127 5.286-.506 1.636-.38 3.398-.886 5.16-1.77v5.564c-1.636.759-3.272 1.391-5.034 1.644-1.762.127-3.65.253-5.79.253zm-1.259-27.95c-2.14 0-3.901.632-5.16 2.023-1.258 1.392-2.013 3.415-2.265 5.944h14.473c0-2.655-.63-4.679-1.888-5.944-1.259-1.264-3.02-2.023-5.16-2.023zM74.867 45.747L62.786 13.75h7.173l6.419 18.591c1.132 3.162 1.761 5.691 2.013 7.588h.252c.126-1.39.88-3.92 2.013-7.588l6.419-18.591h7.173L82.167 45.747h-7.3z" fill="#020203"/><path d="M114.888 46.506c0 2.023.629 3.415 1.762 4.426 1.132 1.012 3.02 1.518 5.789 1.518v2.656c-3.776 0-6.419-.759-7.929-2.15-1.636-1.391-2.391-3.668-2.391-6.703v-9.738c0-3.92-2.265-5.945-6.67-6.07v-2.277c2.391 0 4.027-.506 5.034-1.518 1.007-.885 1.51-2.403 1.51-4.3V12.232c0-5.817 3.398-8.726 10.32-8.853v2.656c-2.643.127-4.531.633-5.789 1.644-1.133 1.012-1.762 2.53-1.762 4.553v8.853c0 2.53-.378 4.427-1.259 5.565-.881 1.265-2.265 2.024-4.027 2.403v.253c1.888.38 3.272 1.138 4.027 2.403.881 1.265 1.259 3.035 1.259 5.438v9.359h.126z" fill="#E52521"/><path d="M139.428 46.253c-4.53 0-8.054-1.391-10.571-4.173-2.517-2.783-3.775-6.703-3.775-11.762 0-5.06 1.258-8.98 3.649-12.015s5.789-4.553 9.942-4.553c3.65 0 6.544 1.265 8.684 3.92 2.139 2.53 3.146 6.071 3.146 10.498v2.276h-22.527c0 4.3 1.007 7.588 3.02 9.865 2.014 2.276 4.783 3.415 8.432 3.415 1.762 0 3.398-.127 4.657-.38 1.258-.253 3.02-.759 5.16-1.644v2.656c-1.762.759-3.398 1.265-4.908 1.518-1.385.253-3.147.379-4.909.379zm-.755-30.1c-3.02 0-5.411 1.012-7.299 3.035-1.762 2.024-2.895 4.933-3.146 8.6h19.381c0-3.667-.756-6.45-2.392-8.6-1.636-1.897-3.775-3.035-6.544-3.035zM167.619 13.623c2.265 0 4.278.38 5.915 1.265 1.636.885 3.146 2.277 4.404 4.3h.126c-.126-2.403-.126-4.806-.126-7.082V.723h2.769v45.024h-1.888l-.755-4.806h-.252c-2.391 3.541-5.789 5.438-10.193 5.438-4.279 0-7.551-1.39-9.943-4.047-2.265-2.656-3.397-6.576-3.397-11.762 0-5.438 1.132-9.611 3.397-12.52 2.392-2.909 5.664-4.427 9.943-4.427zm0 2.656c-3.398 0-5.915 1.265-7.677 3.668-1.762 2.403-2.517 5.944-2.517 10.497 0 8.853 3.398 13.406 10.319 13.406 3.524 0 6.167-1.012 7.803-3.035 1.636-2.024 2.517-5.439 2.517-10.244v-.506c0-4.806-.755-8.347-2.391-10.497-1.636-2.15-4.405-3.289-8.054-3.289zM190.775 14.256v20.362c0 3.161.629 5.438 2.013 6.956 1.385 1.39 3.398 2.15 6.167 2.15 3.775 0 6.418-.886 8.18-2.783 1.762-1.897 2.643-4.932 2.643-9.232V14.256h2.769V45.62h-2.391l-.504-4.3h-.126c-2.013 3.288-5.663 4.932-10.823 4.932-7.173 0-10.697-3.794-10.697-11.509V14.256h2.769zM232.557 46.253c-4.531 0-7.929-1.391-10.446-4.3-2.517-2.783-3.775-6.83-3.775-11.888 0-5.186 1.258-9.233 3.901-12.142 2.643-2.908 6.167-4.3 10.823-4.3 2.643 0 5.286.506 7.803 1.392l-.755 2.529c-2.643-.885-5.034-1.391-7.048-1.391-3.775 0-6.796 1.138-8.683 3.541-1.888 2.403-3.021 5.818-3.021 10.244 0 4.3 1.007 7.588 3.021 9.991 2.013 2.403 4.782 3.542 8.306 3.542 2.894 0 5.537-.506 7.928-1.518v2.656c-2.139 1.138-4.782 1.644-8.054 1.644zM264.145 45.747l-.755-4.932h-.252c-1.51 2.023-3.146 3.414-4.782 4.3-1.636.885-3.65 1.264-5.915 1.264-3.02 0-5.411-.758-7.173-2.403-1.762-1.517-2.517-3.794-2.517-6.576 0-3.035 1.258-5.438 3.775-7.082 2.517-1.645 6.167-2.53 11.075-2.656l5.915-.127v-2.023c0-3.036-.629-5.186-1.762-6.703-1.259-1.518-3.146-2.277-5.789-2.277-2.895 0-5.915.76-9.061 2.403l-1.007-2.53c3.398-1.643 6.796-2.402 10.194-2.402 3.398 0 6.041.885 7.677 2.656 1.636 1.77 2.517 4.553 2.517 8.347v20.867h-2.14v-.126zm-11.452-2.023c3.398 0 5.915-1.012 7.928-2.91 1.888-1.896 2.895-4.552 2.895-7.967v-3.035l-5.412.253c-4.404.253-7.551.885-9.438 2.023-1.888 1.138-2.769 3.035-2.769 5.438 0 2.024.629 3.542 1.762 4.553 1.132 1.012 2.769 1.645 5.034 1.645zM281.638 43.724c1.762 0 3.398-.127 4.657-.506v2.276c-1.385.506-3.021.632-4.783.632-2.768 0-4.782-.758-6.166-2.276-1.259-1.518-2.014-3.794-2.014-6.956V16.659h-4.656v-1.644l4.656-1.265 1.385-7.083h1.51v7.589h9.187v2.53h-9.187V36.64c0 2.403.377 4.174 1.258 5.312 1.007 1.138 2.391 1.77 4.153 1.77zM289.818 5.53c0-1.898.63-2.783 1.762-2.783.629 0 1.007.253 1.385.759.377.506.503 1.138.503 2.023 0 .886-.126 1.518-.503 2.024-.378.506-.756.759-1.385.759-1.132 0-1.762-.886-1.762-2.783zm3.272 40.217h-2.894V14.256h2.894v31.491zM326.44 29.938c0 5.186-1.258 9.106-3.649 12.015-2.517 2.909-5.915 4.3-10.194 4.3-2.769 0-5.16-.632-7.299-2.024-2.14-1.39-3.65-3.288-4.783-5.69-1.132-2.53-1.636-5.313-1.636-8.6 0-5.186 1.259-9.107 3.65-12.016 2.517-2.908 5.915-4.3 10.194-4.3 4.279 0 7.677 1.392 10.068 4.3 2.391 3.036 3.649 6.956 3.649 12.015zm-24.666 0c0 4.3.881 7.715 2.894 10.118 1.888 2.403 4.531 3.668 8.055 3.668 3.398 0 6.166-1.265 8.054-3.668 1.888-2.403 2.895-5.818 2.895-10.118 0-4.3-1.007-7.715-2.895-10.117-1.888-2.404-4.53-3.542-8.054-3.542-3.398 0-6.167 1.139-7.929 3.541-2.139 2.403-3.02 5.818-3.02 10.118zM354.002 45.747V25.259c0-3.162-.63-5.439-2.014-6.956-1.384-1.391-3.398-2.15-6.167-2.15-3.775 0-6.418.885-8.18 2.909-1.762 1.897-2.643 4.932-2.643 9.232v17.327h-2.894V14.256h2.391l.503 4.3h.126c2.014-3.289 5.663-4.933 10.823-4.933 7.048 0 10.697 3.795 10.697 11.51V45.62h-2.642v.126z" fill="#020203"/><path d="M368.348 37.147c0-2.403.378-4.173 1.259-5.438.881-1.265 2.265-2.024 4.027-2.403v-.253c-1.888-.38-3.272-1.138-4.027-2.403-.881-1.265-1.259-3.162-1.259-5.691v-8.853c0-2.024-.629-3.541-1.761-4.553-1.133-1.012-3.147-1.644-5.79-1.644v-2.53c3.398 0 5.915.76 7.677 2.277 1.762 1.517 2.643 3.667 2.643 6.576V22.35c0 1.897.504 3.415 1.51 4.3 1.007.885 2.769 1.391 5.034 1.518v2.276c-4.404.127-6.67 2.15-6.67 6.07v9.739c0 3.035-.755 5.185-2.391 6.703-1.636 1.517-4.279 2.15-7.928 2.15V52.45c2.642 0 4.656-.506 5.789-1.518 1.132-1.011 1.762-2.403 1.762-4.426v-9.359h.125z" fill="#E52521"/></svg>