<svg width="137" height="44" fill="none" xmlns="http://www.w3.org/2000/svg"><path d="M47.71 9.865H52.1v3.256c.467-1.39 2.178-3.572 5.82-3.572v4.932c-3.86 0-5.758 1.802-5.758 5.818v6.481h-4.45V9.865zM61.59 5.122c0-1.486 1.152-2.687 2.615-2.719 1.463-.032 2.645 1.17 2.677 2.656 0 1.486-1.152 2.687-2.615 2.719h-.03c-1.463 0-2.615-1.17-2.646-2.656zm.436 4.743h4.451V26.78h-4.45V9.865zM72.701 21.31V13.5h-2.427V9.866H72.7V6.608l4.45-1.012v4.269h4.607V13.5h-4.606v7.746c0 1.454.716 1.929 1.494 1.929a3.97 3.97 0 002.116-.727l1.276 3.351a7.512 7.512 0 01-4.233 1.296c-3.298 0-5.104-1.96-5.104-5.786zM85.493 5.122c0-1.486 1.151-2.687 2.614-2.719 1.463-.032 2.645 1.17 2.676 2.656 0 1.486-1.151 2.687-2.614 2.719h-.03a2.637 2.637 0 01-2.646-2.656zm.435 4.743h4.45V26.78h-4.45V9.865zM93.553 18.307c0-4.901 3.922-8.79 8.87-8.79 2.179-.032 4.295.759 5.944 2.15l-2.707 3.162a4.344 4.344 0 00-3.175-1.139c-2.583 0-4.45 1.93-4.45 4.585 0 2.656 1.774 4.585 4.606 4.585 1.338 0 2.645-.475 3.641-1.392l2.365 3.384a9.515 9.515 0 01-6.224 2.213c-4.948.031-8.87-3.858-8.87-8.758zM110.484 18.307c0-4.87 2.925-8.79 7.531-8.79 1.93 0 3.984.79 5.198 2.403V9.865h4.357V26.78h-4.357v-2.023c-1.152 1.612-3.268 2.371-5.198 2.371-4.606-.032-7.531-3.952-7.531-8.821zm12.604 0c0-2.625-1.649-4.585-3.952-4.585-2.397 0-4.139 1.96-4.139 4.585 0 2.624 1.742 4.584 4.139 4.584 2.272.032 3.952-1.865 3.952-4.584zM131.771 4.521h4.451V26.75h-4.451V4.52z" fill="#28282D"/><path d="M17.646 26.843h-5.073l-3.672-5.248-3.672 5.217H.156l6.224-8.79-5.944-8.41h5.042L8.9 14.449l3.424-4.837h5.01l-5.913 8.41 6.224 8.821z" fill="#B91E2D"/><path d="M0 41.862l.654-1.423c.684.6 1.525.917 2.396.917.685 0 1.494-.253 1.494-.822 0-.538-.778-.696-1.525-.917-1.432-.411-2.677-.854-2.677-2.371 0-1.518 1.525-2.309 2.864-2.309.964 0 1.898.254 2.707.791l-.622 1.391a3.98 3.98 0 00-2.085-.569c-.56 0-1.12.253-1.12.664 0 .538.622.664 1.306.79 1.4.317 2.895.886 2.895 2.467 0 1.802-1.837 2.466-3.237 2.466-1.12.095-2.21-.316-3.05-1.075zM22.346 34.97c-2.179.062-3.922 1.896-3.86 4.11.063 2.213 1.868 3.983 4.046 3.92 2.148-.063 3.86-1.834 3.86-4.015 0-2.245-1.806-4.047-3.984-4.016h-.062zm0 6.354c-1.276 0-2.303-1.043-2.334-2.34a2.364 2.364 0 012.302-2.37c1.276 0 2.304 1.043 2.335 2.339v.032a2.278 2.278 0 01-2.21 2.34h-.093zM38.063 36.518H36.88v-1.39h1.182v-.538c0-1.834.996-2.53 2.18-2.53.684 0 1.337.19 1.929.506l-.498 1.265c-.312-.158-.654-.285-.996-.285-.498 0-.903.253-.903 1.202v.348h2.117v1.39h-2.117v6.324h-1.712v-6.292zM55.149 40.344v-3.826h-1.12v-1.422h1.12V33.61l1.711-.348v1.865h2.272v1.423H56.86v3.857c0 .822.374 1.107.81 1.107a2.152 2.152 0 001.089-.38l.498 1.297A3.16 3.16 0 0157.42 43c-1.525 0-2.272-.854-2.272-2.656zM70.585 35.127h1.65l1.338 4.269c.125.474.25.948.28 1.454.063-.474.125-.949.218-1.423l1.12-4.3h1.681l1.12 4.3c.094.474.187.949.218 1.423.063-.506.156-.98.28-1.454l1.339-4.269h1.65l-2.49 7.746h-1.526l-1.182-4.3c-.125-.474-.187-.948-.25-1.422-.061.474-.155.948-.248 1.422l-1.183 4.3h-1.525l-2.49-7.746zM98.938 35.127v.98c-.623-.727-1.556-1.17-2.521-1.138-2.085 0-3.517 1.802-3.517 4.016C92.9 41.229 94.33 43 96.417 43a3.122 3.122 0 002.52-1.138v.98h1.712v-7.715h-1.711zm-2.117 6.197c-1.307 0-2.21-.98-2.21-2.34 0-1.359.934-2.37 2.21-2.37 1.214 0 2.117 1.011 2.117 2.37 0 1.36-.903 2.34-2.117 2.34zM113.254 35.127h1.712v1.518c.28-.79 1.12-1.676 2.738-1.676v1.897c-1.68 0-2.738.822-2.738 2.846v3.162h-1.712v-7.747zM137 38.921c0-2.181-1.618-3.952-3.641-3.952-2.148 0-3.921 1.77-3.921 3.984v.063c0 2.53 1.929 4.016 4.108 4.016a5.072 5.072 0 002.894-.917l-.685-1.265c-.653.443-1.4.664-2.178.664-1.152 0-2.117-.632-2.366-1.865h5.758c.031-.253.031-.506.031-.728zm-5.82-.6a2.15 2.15 0 012.086-1.834c1.058 0 1.96.79 2.085 1.834h-4.171zM40.74 19.508c-3.269 3.541-8.777 3.731-12.263.38-3.486-3.352-3.672-8.917-.373-12.458 3.174-3.415 8.403-3.73 11.95-.664l3.113-3.446C40.864 1.2 37.689 0 34.172 0c-7.936 0-13.538 6.007-13.538 13.406 0 7.525 5.633 13.532 13.538 13.532 3.922 0 7.252-1.454 9.71-3.857l-3.143-3.573z" fill="#28282D"/></svg>